<?xml version="1.0" standalone="no"?>
<!DOCTYPE svg PUBLIC "-//W3C//DTD SVG 1.1//EN" "http://www.w3.org/Graphics/SVG/1.1/DTD/svg11.dtd" >
<svg xmlns="http://www.w3.org/2000/svg" xmlns:xlink="http://www.w3.org/1999/xlink" version="1.1">
<metadata>
Created by FontForge 20170104 at Thu Aug 10 11:57:37 2017
 By myTaste
Copyright 1990 as an unpublished work by Bitstream Inc.  All rights reserved.  Confidential.
</metadata>
<defs>
<font id="FuturaBT-Medium" horiz-adv-x="500" >
  <font-face 
    font-family="Futura Md BT"
    font-weight="500"
    font-stretch="normal"
    units-per-em="1000"
    panose-1="0 0 0 0 0 0 0 0 0 0"
    ascent="800"
    descent="-200"
    x-height="463"
    cap-height="715"
    bbox="-167 -236 1141 963"
    underline-thickness="71"
    underline-position="-108"
    unicode-range="U+000D-FB02"
  />
<missing-glyph horiz-adv-x="302" 
 />
    <glyph glyph-name=".notdef" horiz-adv-x="302" 
 />
    <glyph glyph-name=".null" horiz-adv-x="0" 
 />
    <glyph glyph-name=".null" horiz-adv-x="0" 
 />
    <glyph glyph-name="nonmarkingreturn" unicode="&#xd;" horiz-adv-x="250" 
 />
    <glyph glyph-name="space" unicode=" " horiz-adv-x="302" 
 />
    <glyph glyph-name="exclam" unicode="!" horiz-adv-x="329" 
d="M100 45q0 26 19 45t45 19q27 0 45.5 -18.5t18.5 -45.5q0 -26 -18.5 -45t-45.5 -19t-45.5 19t-18.5 45zM220 731v-567h-111v567h111z" />
    <glyph glyph-name="quotedbl" unicode="&#x22;" horiz-adv-x="314" 
d="M122 701v-272h-80v272h80zM273 701v-272h-80v272h80z" />
    <glyph glyph-name="numbersign" unicode="#" horiz-adv-x="769" 
d="M452 713l-75 -213h122l76 213h93l-75 -213h142l-29 -84h-143l-44 -123h151l-30 -84h-150l-76 -212h-93l76 212h-123l-77 -212h-93l76 212h-146l30 84h145l44 123h-154l30 84h154l76 213h93zM302 292h125l44 124h-125z" />
    <glyph glyph-name="dollar" unicode="$" horiz-adv-x="604" 
d="M328 105q82 21 82 98q0 33 -20 57t-62 44v-199zM277 619q-35 -11 -51.5 -30t-16.5 -51q0 -31 16.5 -53t51.5 -41v175zM159 196q24 -84 118 -94v223q-97 40 -144 88.5t-47 117.5q0 77 50 127.5t141 61.5v55h51v-56q141 -12 179 -113l-90 -45q-32 51 -89 61v-196
q52 -24 90 -46.5t63 -47t37 -54t12 -68.5q0 -88 -52 -142.5t-150 -66.5v-83h-51v81q-175 12 -210 156z" />
    <glyph glyph-name="percent" unicode="%" horiz-adv-x="792" 
d="M155 -19l417 741h67l-417 -741h-67zM187 403q72 0 72 131q0 64 -18 97.5t-52 33.5q-73 0 -73 -132q0 -64 18.5 -97t52.5 -33zM28 534q0 90 42.5 139t117.5 49t117 -48.5t42 -139.5q0 -90 -42 -139t-117 -49t-117.5 48.5t-42.5 139.5zM446 170q0 90 42.5 139t117.5 49
t117 -48.5t42 -139.5q0 -90 -42.5 -139.5t-117.5 -49.5t-117 49.5t-42 139.5zM604 39q73 0 73 131q0 64 -18.5 97t-52.5 33q-73 0 -73 -131q0 -64 18.5 -97t52.5 -33z" />
    <glyph glyph-name="ampersand" unicode="&#x26;" horiz-adv-x="671" 
d="M473 68q-51 -44 -104 -64.5t-117 -20.5q-50 0 -91 15.5t-70 42.5t-45 64.5t-16 81.5q0 64 39.5 115t119.5 101l-29 31q-49 54 -49 119q0 35 13.5 64t37.5 51t58 34t75 12q83 0 129 -41.5t46 -109.5q0 -55 -34.5 -97.5t-104.5 -83.5l149 -173q24 24 46.5 52t45.5 60
l68 -73q-39 -62 -95 -112l120 -136h-134zM251 324l-18 -12q-45 -29 -68.5 -56.5t-23.5 -65.5q0 -23 8.5 -43.5t24 -36t37 -24.5t46.5 -9q73 0 150 67zM305 471q55 33 55 85q0 31 -19 50t-48 19q-33 0 -53 -19.5t-20 -50.5q0 -30 23 -56l36 -43z" />
    <glyph glyph-name="quotesingle" unicode="'" horiz-adv-x="163" 
d="M122 701v-272h-80v272h80z" />
    <glyph glyph-name="parenleft" unicode="(" horiz-adv-x="303" 
d="M198 -218q-116 215 -116 481q0 140 28 259.5t88 225.5l80 -24q-54 -107 -78.5 -219.5t-24.5 -240.5q0 -133 24 -244.5t79 -211.5z" />
    <glyph glyph-name="parenright" unicode=")" horiz-adv-x="303" 
d="M22 -192q55 100 79 211.5t24 244.5q0 128 -24.5 240.5t-78.5 219.5l79 24q60 -106 88 -225.5t28 -259.5q0 -266 -116 -481z" />
    <glyph glyph-name="asterisk" unicode="*" horiz-adv-x="440" 
d="M52 483l110 56l-110 65l35 60l103 -66l-6 117h71l-7 -118l105 67l35 -60l-113 -62l113 -59l-37 -59l-103 68l7 -120h-71l5 119l-102 -67z" />
    <glyph glyph-name="plus" unicode="+" horiz-adv-x="833" 
d="M458 596v-257h251v-81h-251v-258h-83v258h-251v81h251v257h83z" />
    <glyph glyph-name="comma" unicode="," horiz-adv-x="302" 
d="M246 86l-127 -262l-63 25l95 272z" />
    <glyph glyph-name="hyphen" unicode="-" horiz-adv-x="405" 
d="M333 279v-98h-261v98h261z" />
    <glyph glyph-name="period" unicode="." horiz-adv-x="302" 
d="M87 54q0 27 18.5 46t45.5 19t45.5 -19t18.5 -46q0 -26 -18.5 -44.5t-45.5 -18.5t-45.5 18.5t-18.5 44.5z" />
    <glyph glyph-name="slash" unicode="/" horiz-adv-x="433" 
d="M433 731l-350 -824h-83l350 824h83z" />
    <glyph glyph-name="zero" unicode="0" horiz-adv-x="604" 
d="M300 81q143 0 143 272q0 134 -35.5 202t-103.5 68q-143 0 -143 -272q0 -133 36.5 -201.5t102.5 -68.5zM559 344q0 -86 -18 -153.5t-51.5 -114t-81 -71t-106.5 -24.5q-121 0 -189 95.5t-68 275.5q0 178 68.5 274t189.5 96q122 0 189 -96t67 -282z" />
    <glyph glyph-name="one" unicode="1" horiz-adv-x="604" 
d="M264 616h-148l45 92h209v-708h-106v616z" />
    <glyph glyph-name="two" unicode="2" horiz-adv-x="604" 
d="M500 0h-479l267 320q48 57 72 103t24 85q0 53 -31 83.5t-87 30.5q-49 0 -80.5 -30t-35.5 -81h-112q0 48 16.5 87t47.5 66.5t75 42.5t99 15q104 0 163.5 -53t59.5 -145q0 -42 -13 -80.5t-36.5 -77.5t-56.5 -80t-74 -88l-91 -105h272v-93z" />
    <glyph glyph-name="three" unicode="3" horiz-adv-x="604" 
d="M157 191v-6q0 -49 33.5 -78.5t91.5 -29.5q66 0 101 32.5t35 93.5q0 129 -145 129q-5 0 -10.5 -0.5t-11.5 -0.5v94q5 0 10.5 -0.5t10.5 -0.5q128 0 128 105q0 46 -29 73t-78 27q-53 0 -82 -25t-31 -71h-105q5 91 61.5 140t159.5 49q100 0 156.5 -51t56.5 -139
q0 -66 -32 -108t-91 -51q68 -12 103.5 -59t35.5 -126q0 -46 -17 -84.5t-48.5 -65.5t-77.5 -42t-104 -15q-51 0 -93.5 14.5t-72.5 42t-47 66.5t-19 87h111z" />
    <glyph glyph-name="four" unicode="4" horiz-adv-x="604" 
d="M356 145h-343l416 577h33v-496h87v-81h-87v-145h-106v145zM177 226h179v186q0 5 0.5 22.5t2.5 48.5z" />
    <glyph glyph-name="five" unicode="5" horiz-adv-x="604" 
d="M115 171q26 -47 64.5 -71t86.5 -24q71 0 115 44.5t44 119.5q0 35 -12 64.5t-34 50.5t-52.5 33t-68.5 12q-92 0 -151 -61l-29 6l89 363h338v-94h-268l-42 -158q57 24 111 24q51 0 93.5 -17t72.5 -48.5t47 -74.5t17 -96q0 -59 -19 -107.5t-54.5 -83t-86.5 -53.5t-115 -19
q-74 0 -128.5 25.5t-94.5 79.5z" />
    <glyph glyph-name="six" unicode="6" horiz-adv-x="604" 
d="M231 434q48 23 93 23q47 0 87.5 -17t70 -47.5t46 -73t16.5 -93.5q0 -55 -18 -100t-51.5 -77.5t-80 -50t-103.5 -17.5q-54 0 -97.5 17.5t-74 49t-47.5 75.5t-17 97q0 45 13 86.5t35.5 83.5t53.5 86.5t67 95.5l125 177l89 -45zM166 219q0 -66 36 -104t92 -38q65 0 101 38
t36 104q0 67 -35.5 105t-100.5 38q-57 0 -93 -39.5t-36 -103.5z" />
    <glyph glyph-name="seven" unicode="7" horiz-adv-x="604" 
d="M404 616h-331v92h493l-360 -735l-94 42z" />
    <glyph glyph-name="eight" unicode="8" horiz-adv-x="604" 
d="M301 76q64 0 99 33.5t35 90.5q0 59 -35.5 92t-98.5 33t-98 -33.5t-35 -91.5q0 -57 34.5 -90.5t98.5 -33.5zM303 628q-51 0 -80 -27t-29 -72t28 -70.5t79 -25.5q53 0 80.5 25.5t27.5 70.5q0 46 -27.5 72.5t-78.5 26.5zM183 378q-53 23 -78 59.5t-25 93.5q0 42 15.5 77
t44 60.5t69.5 39.5t92 14q52 0 93 -14t69.5 -40t44 -62t15.5 -80q0 -108 -103 -148q60 -20 93.5 -69t33.5 -117q0 -97 -64 -154t-182 -57t-181.5 57t-63.5 152q0 70 33 119t94 69z" />
    <glyph glyph-name="nine" unicode="9" horiz-adv-x="604" 
d="M364 269q-45 -22 -93 -22q-47 0 -87.5 16.5t-70 47t-46 73t-16.5 93.5q0 55 18 100t51.5 77.5t80 50t103.5 17.5q54 0 97.5 -17t74.5 -48.5t48 -75.5t17 -97q0 -45 -13 -86.5t-35.5 -83.5t-53.5 -86.5t-67 -95.5l-126 -177l-88 45zM429 485q0 66 -35.5 104t-91.5 38
q-65 0 -101.5 -38t-36.5 -104q0 -67 35.5 -105.5t100.5 -38.5q57 0 93 40t36 104z" />
    <glyph glyph-name="colon" unicode=":" horiz-adv-x="329" 
d="M100 54q0 26 19 45t45 19q27 0 45.5 -18.5t18.5 -45.5q0 -26 -18.5 -44.5t-45.5 -18.5t-45.5 18.5t-18.5 44.5zM100 388q0 26 19 44.5t45 18.5q27 0 45.5 -18t18.5 -45q0 -26 -18.5 -45t-45.5 -19t-45.5 19t-18.5 45z" />
    <glyph glyph-name="semicolon" unicode=";" horiz-adv-x="329" 
d="M249 86l-127 -262l-64 25l96 272zM143 388q0 26 18.5 44.5t44.5 18.5q27 0 45.5 -18t18.5 -45q0 -26 -18.5 -45t-45.5 -19t-45 19t-18 45z" />
    <glyph glyph-name="less" unicode="&#x3c;" horiz-adv-x="833" 
d="M704 484l-456 -186l456 -186v-89l-575 236v78l575 237v-90z" />
    <glyph glyph-name="equal" unicode="=" horiz-adv-x="833" 
d="M709 440v-82h-585v82h585zM709 238v-81h-585v81h585z" />
    <glyph glyph-name="greater" unicode="&#x3e;" horiz-adv-x="833" 
d="M704 337v-78l-575 -236v89l456 186l-456 186v90z" />
    <glyph glyph-name="question" unicode="?" horiz-adv-x="544" 
d="M194 45q0 26 19 45t45 19q27 0 45.5 -18.5t18.5 -45.5q0 -26 -18.5 -45t-45.5 -19t-45.5 19t-18.5 45zM102 545q0 5 -0.5 9t-0.5 9q0 78 46.5 123.5t124.5 45.5q81 0 127.5 -46t46.5 -122q0 -33 -8.5 -57t-26 -43.5t-43 -35t-59.5 -32.5q-25 -12 -45 -22.5t-34 -21
t-21.5 -23t-7.5 -29.5q0 -24 18.5 -42.5t46.5 -18.5q67 0 69 76h87v-10q0 -72 -40.5 -111.5t-115.5 -39.5q-35 0 -64.5 11t-50.5 30.5t-32.5 45.5t-11.5 57q0 34 10 59.5t29.5 45.5t47.5 37t65 35q45 21 70 39.5t25 53.5q0 32 -23 53.5t-59 21.5q-40 0 -63 -25.5t-23 -72.5
h-84z" />
    <glyph glyph-name="at" unicode="@" horiz-adv-x="1000" 
d="M602 345q-7 42 -30 64t-60 22q-31 0 -58 -16.5t-47.5 -45.5t-32.5 -68t-12 -84q0 -49 22 -74.5t63 -25.5q43 0 79 31.5t49 85.5zM573 138q-27 -43 -62.5 -62.5t-85.5 -19.5q-75 0 -114 42t-39 122q0 59 18.5 108.5t50 86t73.5 57t88 20.5q84 0 121 -69l27 52h75l-72 -286
q-2 -8 -3 -13.5t-1 -10.5q0 -19 13 -30t34 -11q23 0 50.5 14t53.5 42q35 37 53.5 86t18.5 106q0 61 -23.5 112t-66.5 88t-104 57.5t-136 20.5q-135 0 -230 -61q-89 -56 -136.5 -142.5t-47.5 -192.5q0 -76 26.5 -138t75.5 -105.5t118.5 -67.5t154.5 -24q82 0 158.5 24
t141.5 69l33 -48q-147 -111 -329 -111q-189 0 -309 93q-150 114 -150 309q0 81 25.5 153.5t74.5 132.5q72 88 172 133t225 45q84 0 155.5 -22.5t122.5 -61.5q129 -99 129 -262q0 -80 -31.5 -147.5t-90.5 -115.5q-69 -55 -155 -55q-102 0 -102 81v2z" />
    <glyph glyph-name="A" unicode="A" horiz-adv-x="662" 
d="M473 184h-283l-83 -184h-122l346 743l346 -743h-123zM432 281l-73 163q-6 14 -12.5 34t-14.5 47q-7 -27 -13.5 -47t-12.5 -34l-73 -163h199z" />
    <glyph glyph-name="B" unicode="B" horiz-adv-x="576" 
d="M82 715h180q57 0 100.5 -5.5t76.5 -30.5q33 -24 51.5 -63.5t18.5 -87.5q0 -57 -26 -95.5t-77 -53.5q63 -10 98.5 -57t35.5 -119q0 -45 -15.5 -83.5t-42.5 -65.5q-19 -19 -41.5 -30t-49.5 -16t-58.5 -6.5t-69.5 -1.5h-181v715zM236 97q49 0 83.5 4t55.5 18t33 38t12 53
q0 70 -55 99q-20 11 -44 13.5t-50 2.5h-35h-40v-228h40zM240 413q79 0 115.5 21t36.5 78q0 33 -9.5 54t-28 32.5t-47 15.5t-67.5 4h-44v-205h44z" />
    <glyph glyph-name="C" unicode="C" horiz-adv-x="718" 
d="M656 541q-99 84 -220 84q-59 0 -107.5 -20t-83.5 -55.5t-54 -85t-19 -109.5q0 -59 19.5 -108t53 -84t79.5 -54.5t100 -19.5q126 0 231 90v-131q-94 -67 -222 -67q-83 0 -152 27t-122 79t-80.5 121.5t-27.5 147.5q0 79 27.5 147.5t81.5 121.5t122 80t149 27
q65 0 121.5 -18.5t109.5 -55.5z" />
    <glyph glyph-name="D" unicode="D" horiz-adv-x="740" 
d="M82 715h157q50 0 95 -1t85 -7.5t75.5 -20t68.5 -38.5q62 -48 94 -121t32 -170t-32 -169.5t-94 -120.5q-31 -24 -64.5 -37.5t-69.5 -20t-75.5 -8t-83.5 -1.5h-31h-157v715zM240 105h56q60 0 106.5 7.5t84.5 39.5q81 69 81 206t-81 206q-40 33 -90 40t-115 7h-42h-42v-506
h42z" />
    <glyph glyph-name="E" unicode="E" horiz-adv-x="532" 
d="M82 715h399v-99h-283v-179h283v-102h-283v-231h283v-104h-399v715z" />
    <glyph glyph-name="F" unicode="F" horiz-adv-x="525" 
d="M82 715h399v-99h-283v-178h283v-102h-283v-336h-116v715z" />
    <glyph glyph-name="G" unicode="G" horiz-adv-x="803" 
d="M761 366q1 -22 1.5 -38.5t0.5 -28.5q0 -153 -86.5 -235.5t-243.5 -82.5q-174 0 -277 104q-51 52 -78 121.5t-27 149.5q0 164 109 270q53 51 122.5 78t150.5 27q167 0 270 -125l-85 -64q-71 83 -183 83q-57 0 -105.5 -19t-83.5 -54.5t-54.5 -85t-19.5 -109.5
q0 -61 19.5 -111t54.5 -86t83.5 -55.5t106.5 -19.5q101 0 157.5 46.5t56.5 126.5v10h-172v98h283z" />
    <glyph glyph-name="H" unicode="H" horiz-adv-x="748" 
d="M82 715h116v-264h352v264h116v-715h-116v347h-352v-347h-116v715z" />
    <glyph glyph-name="I" unicode="I" horiz-adv-x="285" 
d="M84 715h116v-715h-116v715z" />
    <glyph glyph-name="J" unicode="J" horiz-adv-x="394" 
d="M76 130q17 -20 33.5 -30.5t36.5 -10.5q39 0 50.5 26.5t11.5 79.5v520h115v-558q0 -90 -39 -133t-126 -43q-47 0 -84.5 18t-71.5 56z" />
    <glyph glyph-name="K" unicode="K" horiz-adv-x="620" 
d="M82 715h116v-296l257 296h142l-283 -318l317 -397h-150l-283 365v-365h-116v715z" />
    <glyph glyph-name="L" unicode="L" horiz-adv-x="470" 
d="M82 715h116v-611h260v-104h-376v715z" />
    <glyph glyph-name="M" unicode="M" horiz-adv-x="863" 
d="M665 353q-2 10 -5 34l-8 64q-9 -49 -33 -99l-187 -381l-187 389q-11 22 -19.5 44.5t-15.5 46.5q-1 -26 -4.5 -50.5t-8.5 -48.5l-77 -352h-107l169 743l211 -449q5 -10 14.5 -34t24.5 -63q11 30 22 54t19 43l206 449l173 -743h-108z" />
    <glyph glyph-name="N" unicode="N" horiz-adv-x="803" 
d="M82 743l454 -437q22 -21 41 -42.5t37 -44.5v496h107v-743l-463 445q-38 36 -69 80v-497h-107v743z" />
    <glyph glyph-name="O" unicode="O" horiz-adv-x="866" 
d="M815 356q0 -77 -28.5 -144t-83.5 -121t-124 -82t-146 -28t-147 28t-124 82q-55 54 -83 121t-28 144t28 144.5t83 121.5t124 81.5t147 27.5t146.5 -27.5t123.5 -81.5t83.5 -122t28.5 -144zM694 356q0 54 -19.5 103t-57.5 87q-37 38 -84.5 58t-99.5 20t-99.5 -20t-85.5 -58
t-57 -87t-19 -103t19 -102.5t57 -86.5t85 -58t100 -20q108 0 184 78q38 38 57.5 86.5t19.5 102.5z" />
    <glyph glyph-name="P" unicode="P" horiz-adv-x="532" 
d="M191 0h-109v715h153h23q55 0 99 -5.5t80 -31.5q33 -24 52.5 -66t19.5 -94t-19.5 -94.5t-52.5 -66.5q-36 -26 -80 -31t-99 -5h-23h-44v-321zM228 416q40 0 70 3t50.5 13t30.5 29t10 50q0 32 -10 52.5t-30 32t-50 15.5t-71 4h-30v-199h30z" />
    <glyph glyph-name="Q" unicode="Q" horiz-adv-x="866" 
d="M859 -67h-139l-93 101q-49 -26 -98 -38.5t-102 -12.5q-72 0 -141.5 28t-123.5 81q-55 54 -83 121.5t-28 143.5t28 143.5t83 121.5q54 54 123.5 81.5t147.5 27.5t147 -27.5t123 -81.5q55 -54 83.5 -121.5t28.5 -143.5q0 -75 -27.5 -141t-80.5 -119zM631 182q32 40 47.5 82
t15.5 93q0 54 -19 102.5t-57 86.5t-85.5 58.5t-99.5 20.5t-99.5 -20.5t-85.5 -58.5t-57 -86.5t-19 -102.5q0 -55 20 -103.5t55 -84.5t83.5 -57t105.5 -21q59 0 113 27l-128 138h141z" />
    <glyph glyph-name="R" unicode="R" horiz-adv-x="560" 
d="M191 0h-109v715h162q58 0 101.5 -7t76.5 -33q32 -26 50.5 -66t18.5 -91q0 -173 -164 -193l246 -325h-131l-238 320h-13v-320zM219 410q38 0 67 3t48 13.5t28.5 30t9.5 51.5q0 33 -9.5 54t-28 32.5t-47.5 16t-68 4.5h-21v-205h21z" />
    <glyph glyph-name="S" unicode="S" horiz-adv-x="549" 
d="M134 186q26 -98 138 -98q53 0 83 29t30 77q0 26 -9.5 43.5t-26.5 30.5t-40 24.5t-51 24.5q-48 23 -84.5 45t-61.5 47t-38 55.5t-13 70.5q0 43 15.5 79t43.5 62t67.5 40.5t88.5 14.5q80 0 133 -30.5t73 -87.5l-91 -47q-21 33 -46.5 49t-59.5 16q-48 0 -75 -24.5t-27 -65.5
q0 -26 10 -44t28 -31.5t43 -25.5t55 -26q47 -22 82 -43t58 -46t34 -54.5t11 -68.5q0 -50 -16 -90.5t-47 -69.5t-74.5 -45t-99.5 -16q-92 0 -150 42t-76 120z" />
    <glyph glyph-name="T" unicode="T" horiz-adv-x="509" 
d="M313 0h-116v616h-190v99h495v-99h-189v-616z" />
    <glyph glyph-name="U" unicode="U" horiz-adv-x="744" 
d="M194 715v-434q0 -194 178 -194t178 194v434h116v-445q0 -289 -294 -289q-293 0 -293 289v445h115z" />
    <glyph glyph-name="V" unicode="V" horiz-adv-x="618" 
d="M-10 715h121l160 -381q13 -30 22.5 -58t15.5 -57q13 54 39 115l160 381h120l-319 -743z" />
    <glyph glyph-name="W" unicode="W" horiz-adv-x="939" 
d="M112 715l135 -361q11 -29 20.5 -56.5t17.5 -56.5q16 52 26 81.5t13 38.5l144 382l151 -389q10 -26 19.5 -54t18.5 -60q6 26 15 53t20 58l134 364h116l-277 -743l-163 408q-22 54 -35 100q-8 -26 -16 -51.5t-18 -50.5l-160 -406l-276 743h115z" />
    <glyph glyph-name="X" unicode="X" horiz-adv-x="572" 
d="M232 374l-205 341h122l103 -175q8 -12 17 -30t21 -41q8 17 18 34t21 36l109 176h119l-209 -339l225 -376h-128l-120 203q-5 10 -14.5 28t-23.5 44q-16 -34 -39 -71l-125 -204h-123z" />
    <glyph glyph-name="Y" unicode="Y" horiz-adv-x="593" 
d="M236 327l-241 388h122l150 -243q2 -4 10 -18t20 -39q14 35 30 60l154 240h116l-246 -388v-327h-115v327z" />
    <glyph glyph-name="Z" unicode="Z" horiz-adv-x="576" 
d="M373 616h-303v99h482l-361 -611h365v-104h-547z" />
    <glyph glyph-name="bracketleft" unicode="[" horiz-adv-x="303" 
d="M283 -125v-77h-186v933h186v-76h-93v-780h93z" />
    <glyph glyph-name="backslash" unicode="\" horiz-adv-x="433" 
d="M0 731h83l350 -824h-83z" />
    <glyph glyph-name="bracketright" unicode="]" horiz-adv-x="303" 
d="M113 655h-92v76h185v-933h-185v77h92v780z" />
    <glyph glyph-name="asciicircum" unicode="^" horiz-adv-x="1000" 
d="M553 713l242 -274h-101l-194 194l-195 -194h-101l243 274h106z" />
    <glyph glyph-name="underscore" unicode="_" 
d="M500 -152v-84h-500v84h500z" />
    <glyph glyph-name="grave" unicode="`" 
d="M259 533l-143 133h110l93 -133h-60z" />
    <glyph glyph-name="a" unicode="a" horiz-adv-x="582" 
d="M406 233q0 73 -33.5 112.5t-93.5 39.5t-94.5 -41t-34.5 -115q0 -75 33.5 -114.5t93.5 -39.5q55 0 92 42t37 116zM403 0v60q-57 -79 -153 -79q-97 0 -154 66t-57 185q0 56 15.5 101.5t43 78t65.5 50t84 17.5q57 0 97 -23.5t59 -68.5v76h106v-463h-106z" />
    <glyph glyph-name="b" unicode="b" horiz-adv-x="582" 
d="M179 387q19 45 59.5 68.5t97.5 23.5q46 0 84 -17.5t65.5 -50t42.5 -78t15 -101.5q0 -119 -57 -185t-154 -66q-96 0 -153 79v-60h-106v757h106v-370zM176 233q0 -74 37 -116t93 -42q60 0 93 39.5t33 114.5q0 74 -34.5 115t-94.5 41t-93.5 -39.5t-33.5 -112.5z" />
    <glyph glyph-name="c" unicode="c" horiz-adv-x="454" 
d="M419 331q-24 26 -56.5 40.5t-70.5 14.5q-65 0 -104 -41.5t-39 -111.5q0 -73 39.5 -114t108.5 -41q76 0 122 58v-122q-58 -33 -134 -33q-54 0 -99.5 18t-78 51t-50.5 79t-18 101q0 56 18.5 102t52.5 78.5t81.5 50.5t104.5 18q71 0 123 -29v-119z" />
    <glyph glyph-name="d" unicode="d" horiz-adv-x="582" 
d="M509 757v-757h-106v60q-57 -79 -153 -79q-97 0 -154 66t-57 185q0 56 15.5 101.5t43 78t65.5 50t84 17.5q57 0 97 -23.5t59 -68.5v370h106zM406 233q0 73 -33.5 112.5t-93.5 39.5t-94.5 -41t-34.5 -115q0 -75 33.5 -114.5t93.5 -39.5q56 0 92.5 42t36.5 116z" />
    <glyph glyph-name="e" unicode="e" horiz-adv-x="556" 
d="M409 287q-6 51 -38 76.5t-87 25.5q-103 0 -128 -102h253zM149 216q4 -66 38.5 -102t92.5 -36q51 0 85 21.5t60 69.5l89 -50q-77 -138 -232 -138q-55 0 -100 17.5t-77 50t-49 78.5t-17 103q0 54 17.5 99.5t50 79t77 52t98.5 18.5q112 0 174.5 -63.5t62.5 -179.5v-20h-370z
" />
    <glyph glyph-name="f" unicode="f" horiz-adv-x="306" 
d="M88 370h-81v93h81v124q0 92 38 136t119 44q35 0 72 -10v-96q-25 15 -52 15q-40 0 -55.5 -24.5t-15.5 -78.5v-110h111v-93h-111v-370h-106v370z" />
    <glyph glyph-name="g" unicode="g" horiz-adv-x="582" 
d="M509 29q0 -65 -12 -111.5t-39.5 -76.5t-73 -44.5t-112.5 -14.5q-99 0 -154.5 41t-56.5 107h114q5 -61 99 -61q73 0 100 32.5t28 97.5l1 61q-57 -79 -153 -79q-97 0 -154 66t-57 185q0 56 15.5 101.5t43 78t65.5 50t84 17.5q57 0 97 -23.5t59 -68.5v76h106v-434zM406 233
q0 73 -33.5 112.5t-93.5 39.5t-94.5 -41t-34.5 -115q0 -75 33.5 -114.5t93.5 -39.5q55 0 92 42t37 116z" />
    <glyph glyph-name="h" unicode="h" horiz-adv-x="588" 
d="M73 757h100v-370q32 49 75 70.5t104 21.5q104 0 145 -65q17 -26 20 -58.5t3 -74.5v-281h-107v238q0 39 -3.5 67t-14 47t-30.5 28t-53 9q-38 0 -66.5 -13.5t-45.5 -38.5q-14 -21 -17.5 -51.5t-3.5 -74.5v-211h-106v757z" />
    <glyph glyph-name="i" unicode="i" horiz-adv-x="262" 
d="M78 463h106v-463h-106v463zM64 663q0 27 19.5 46.5t47.5 19.5t47 -18.5t19 -47.5t-19 -48t-47 -19t-47.5 20t-19.5 47z" />
    <glyph glyph-name="j" unicode="j" horiz-adv-x="262" 
d="M78 463h106v-681h-106v681zM64 663q0 27 19.5 46.5t47.5 19.5t47 -18.5t19 -47.5t-19 -48t-47 -19t-47.5 20t-19.5 47z" />
    <glyph glyph-name="k" unicode="k" horiz-adv-x="516" 
d="M73 757h106v-486l194 192h131l-210 -204l230 -259h-137l-208 239v-239h-106v757z" />
    <glyph glyph-name="l" unicode="l" horiz-adv-x="262" 
d="M78 757h106v-757h-106v757z" />
    <glyph glyph-name="m" unicode="m" horiz-adv-x="875" 
d="M73 0v463h100v-76q32 48 71.5 70.5t95.5 22.5q107 0 144 -92q36 48 77 70t95 22q47 0 80.5 -17t52.5 -49q11 -19 14 -43t3 -53v-37v-281h-106v238q0 38 -3 66.5t-12 47.5t-27 28.5t-48 9.5q-69 0 -92.5 -45t-23.5 -134v-211h-107v238q0 79 -18.5 115.5t-73.5 36.5
q-32 0 -57.5 -14t-40.5 -39q-14 -23 -16 -53t-2 -73v-211h-106z" />
    <glyph glyph-name="n" unicode="n" horiz-adv-x="588" 
d="M73 463h100v-76q32 49 75 70.5t104 21.5q104 0 145 -65q17 -26 20 -58.5t3 -74.5v-281h-107v238q0 39 -3.5 67t-14 47t-30.5 28t-53 9q-38 0 -66.5 -13.5t-45.5 -38.5q-14 -21 -17.5 -51.5t-3.5 -74.5v-211h-106v463z" />
    <glyph glyph-name="o" unicode="o" horiz-adv-x="588" 
d="M39 231q0 51 19 96t56 80q36 35 82 53.5t97 18.5q52 0 98 -18.5t83 -54.5q36 -35 55.5 -79.5t19.5 -95.5q0 -105 -74 -176q-38 -36 -84 -55t-98 -19q-51 0 -97 19t-82 54q-75 73 -75 177zM437 230q0 33 -11 61t-30.5 48.5t-45.5 32.5t-56 12t-56 -12t-45.5 -32.5
t-30.5 -48.5t-11 -61t11 -61t30.5 -48.5t45.5 -32.5t56 -12q29 0 55 12t45.5 32.5t31 48.5t11.5 61z" />
    <glyph glyph-name="p" unicode="p" horiz-adv-x="582" 
d="M73 463h106v-76q19 45 59.5 68.5t97.5 23.5q46 0 84 -17.5t65.5 -50t42.5 -78t15 -101.5q0 -119 -57 -185t-154 -66q-96 0 -153 79v-278h-106v681zM176 233q0 -75 36.5 -116.5t93.5 -41.5q60 0 93 39.5t33 114.5q0 74 -34.5 115t-94.5 41t-93.5 -39.5t-33.5 -112.5z" />
    <glyph glyph-name="q" unicode="q" horiz-adv-x="582" 
d="M403 -218v278q-57 -79 -153 -79q-97 0 -154 66t-57 185q0 56 15.5 101.5t43 78t65.5 50t84 17.5q57 0 97 -23.5t59 -68.5v76h106v-681h-106zM406 233q0 73 -33.5 112.5t-93.5 39.5t-94.5 -41t-34.5 -115q0 -75 33.5 -114.5t93.5 -39.5q57 0 93 41.5t36 116.5z" />
    <glyph glyph-name="r" unicode="r" horiz-adv-x="368" 
d="M179 389q17 46 45 68t70 22q45 0 87 -21l-38 -90q-15 11 -31 15t-34 4q-57 0 -78 -45t-21 -139v-203h-106v464h106v-75z" />
    <glyph glyph-name="s" unicode="s" horiz-adv-x="426" 
d="M108 132q20 -71 104 -71q36 0 56 16.5t20 44.5q0 18 -8 29t-23 18.5t-35 14.5t-44 17q-66 28 -99.5 58.5t-33.5 81.5q0 60 47 99.5t130 39.5q55 0 93 -20t55 -56l-75 -52q-8 22 -28.5 35t-48.5 13q-31 0 -49 -14.5t-18 -38.5q0 -17 9 -27.5t25 -19t38.5 -16t49.5 -18.5
q61 -24 90 -55t29 -82q0 -68 -49 -108t-140 -40q-133 0 -183 103z" />
    <glyph glyph-name="t" unicode="t" horiz-adv-x="303" 
d="M98 370h-81v93h81v175h106v-175h81v-93h-81v-370h-106v370z" />
    <glyph glyph-name="u" unicode="u" horiz-adv-x="588" 
d="M176 202q0 -66 26.5 -96t91.5 -30t91.5 30t26.5 96v261h106v-229q0 -130 -52 -191.5t-171 -61.5q-121 0 -173 61.5t-52 191.5v229h106v-261z" />
    <glyph glyph-name="v" unicode="v" horiz-adv-x="472" 
d="M-7 463h116l101 -233q10 -22 26 -84q9 42 27 84l101 233h115l-243 -491z" />
    <glyph glyph-name="w" unicode="w" horiz-adv-x="750" 
d="M409 213q-9 21 -17.5 43.5t-16.5 48.5q-22 -65 -32 -88l-110 -245l-240 491h113l104 -223q5 -12 11.5 -35.5t11.5 -58.5q1 23 7.5 43t16.5 41l113 250h9l115 -250q10 -21 15.5 -41t6.5 -43q9 54 27 93l102 224h112l-241 -491z" />
    <glyph glyph-name="x" unicode="x" horiz-adv-x="453" 
d="M-12 0l175 249l-150 214h117l65 -96q8 -12 16 -25.5t16 -30.5q8 15 16 29t17 28l64 95h116l-150 -215l174 -248h-116l-86 122q-11 16 -20.5 31t-15.5 32q-14 -26 -23 -41.5t-14 -22.5l-84 -121h-117z" />
    <glyph glyph-name="y" unicode="y" horiz-adv-x="471" 
d="M44 -218l127 258l-170 423h117l85 -240q8 -23 13.5 -46t8.5 -45q5 20 14 41t19 43l114 247h115l-334 -681h-109z" />
    <glyph glyph-name="z" unicode="z" horiz-adv-x="449" 
d="M-1 0l258 370h-232v93h404l-252 -370h252v-93h-430z" />
    <glyph glyph-name="braceleft" unicode="{" 
d="M427 634q-6 0 -12 0.5t-11 0.5q-29 0 -47 -5.5t-27.5 -17.5t-13 -32t-3.5 -50v-118q0 -34 -4 -59.5t-15 -43.5t-30 -30t-50 -20q31 -7 50 -19.5t30 -31t15 -43.5t4 -59v-117q0 -30 3.5 -50t13.5 -32.5t28 -18t47 -5.5q5 0 10.5 0.5t11.5 0.5v-86h-31q-44 0 -76.5 5
t-56.5 19q-33 20 -41.5 55t-8.5 91v121q0 69 -25 98.5t-88 29.5q-5 0 -10.5 -0.5t-10.5 -0.5v87q5 0 10.5 -0.5t10.5 -0.5q63 0 88 29t25 98v121q0 56 8 91.5t42 55.5q26 15 60 19.5t82 4.5h22v-87z" />
    <glyph glyph-name="bar" unicode="|" 
d="M294 764v-1000h-87v1000h87z" />
    <glyph glyph-name="braceright" unicode="}" 
d="M74 721h22q47 0 81 -4.5t60 -19.5q34 -20 42 -56t8 -91v-121q0 -69 25 -98t88 -29q5 0 10.5 0.5t10.5 0.5v-87q-5 0 -10.5 0.5t-10.5 0.5q-63 0 -88 -29.5t-25 -98.5v-121q0 -55 -8 -90.5t-42 -55.5q-25 -15 -59.5 -19.5t-81.5 -4.5h-22v86q6 0 11.5 -0.5t10.5 -0.5
q29 0 47 5.5t28 18t13 32.5t3 50v117q0 34 4 59t15 43.5t30.5 31t50.5 19.5q-31 8 -50.5 20t-30.5 30.5t-15 43.5t-4 59v118q0 30 -3.5 50t-13 32t-27 17.5t-46.5 5.5q-5 0 -11 -0.5t-12 -0.5v87z" />
    <glyph glyph-name="asciitilde" unicode="~" horiz-adv-x="833" 
d="M747 293q-49 -34 -95 -51.5t-91 -17.5q-44 0 -93 17q-52 17 -98.5 32.5t-94.5 15.5q-44 0 -89 -19.5t-99 -57.5v91q103 70 189 70q43 0 77.5 -9t65.5 -20q37 -13 71.5 -24.5t71.5 -11.5q44 0 89 19t96 56v-90z" />
    <glyph glyph-name="exclamdown" unicode="&#xa1;" horiz-adv-x="329" 
d="M100 668q0 26 18.5 44.5t45.5 18.5t45.5 -18.5t18.5 -44.5q0 -27 -18.5 -45.5t-45.5 -18.5q-26 0 -45 19t-19 45zM109 549h111v-568h-111v568z" />
    <glyph glyph-name="cent" unicode="&#xa2;" horiz-adv-x="604" 
d="M485 469q-31 20 -63 29t-67 12v-292q44 7 75.5 18t54.5 29v-102q-55 -32 -130 -35v-99h-51v101q-48 4 -87.5 22.5t-67 49t-43 70.5t-15.5 87q0 95 56 158.5t157 78.5v79h51v-77q62 -2 130 -29v-100zM304 509q-53 -9 -85 -49t-32 -94q0 -60 31 -99t86 -49v291z" />
    <glyph glyph-name="sterling" unicode="&#xa3;" horiz-adv-x="604" 
d="M36 24q57 85 128 91q23 46 23 87q0 40 -23 84h-122v69h92q-44 73 -44 146q0 47 17 87.5t48.5 70t76.5 46.5t101 17q103 0 162 -55t68 -161l-109 -15q-5 68 -37 102.5t-89 34.5q-55 0 -89 -34t-34 -88q0 -32 13 -68t31 -83h175v-69h-153q5 -14 6.5 -27.5t1.5 -25.5
q0 -32 -12 -62.5t-35 -55.5h3q28 0 53.5 -7t48.5 -15t44.5 -15t42.5 -7q34 0 60.5 13.5t40.5 38.5l65 -58q-23 -42 -61 -64t-85 -22q-33 0 -64.5 7.5t-61 16t-57 16t-54.5 7.5q-54 0 -107 -51z" />
    <glyph glyph-name="currency" unicode="&#xa4;" horiz-adv-x="606" 
d="M181 599q53 40 122 40q70 0 123 -40l99 99l46 -45l-100 -100q39 -52 39 -121q0 -68 -39 -121l100 -100l-46 -45l-99 100q-55 -40 -122 -40q-70 0 -123 40l-99 -100l-45 45l99 100q-39 53 -39 121q0 69 39 121l-99 100l45 45zM304 574q-29 0 -55 -11.5t-45.5 -31
t-30.5 -45t-11 -54.5t11 -55t30.5 -45t45 -30t55.5 -11t55.5 11t45 30t30.5 45t11 55t-11 54.5t-30.5 45t-45.5 31t-55 11.5z" />
    <glyph glyph-name="yen" unicode="&#xa5;" horiz-adv-x="604" 
d="M240 282h-235v71h217l-49 80h-168v71h125l-130 205h117l150 -241q4 -6 11.5 -21t18.5 -38q12 34 30 62l154 238h112l-130 -205h125v-71h-171l-50 -80h221v-71h-241v-282h-107v282z" />
    <glyph glyph-name="brokenbar" unicode="&#xa6;" 
d="M294 699v-370h-87v370h87zM294 199v-370h-87v370h87z" />
    <glyph glyph-name="section" unicode="&#xa7;" horiz-adv-x="532" 
d="M174 -43q3 -89 91 -89q45 0 69 20.5t24 52.5q0 19 -8.5 32t-24 23.5t-38 20t-50.5 21.5q-48 20 -81.5 37t-53.5 36q-61 58 -61 152q0 63 33 109.5t95 70.5q-88 40 -88 132q0 71 49.5 114t143.5 43q85 0 130 -42t45 -122v-10h-91q-3 89 -91 89q-40 0 -63.5 -20.5
t-23.5 -49.5q0 -35 31 -54.5t94 -44.5q48 -19 83.5 -39t58.5 -45.5t34.5 -57.5t11.5 -76q0 -137 -134 -176q47 -22 71.5 -59t24.5 -82q0 -74 -50 -118.5t-143 -44.5q-86 0 -136.5 46t-50.5 121v10h99zM269 137q25 0 47 9.5t39 26.5t27 39.5t10 49.5q0 26 -10 49t-26.5 40
t-39 27t-47.5 10t-47.5 -9.5t-39 -26.5t-26 -40t-9.5 -50t10 -49.5t26.5 -39.5t38.5 -26.5t47 -9.5z" />
    <glyph glyph-name="dieresis" unicode="&#xa8;" 
d="M102 613q0 23 17.5 40.5t41.5 17.5t41 -17t17 -41q0 -26 -16 -43t-42 -17q-25 0 -42 17t-17 43zM280 613q0 23 17.5 40.5t41.5 17.5t41 -17t17 -41q0 -26 -16 -43t-42 -17q-25 0 -42 17t-17 43z" />
    <glyph glyph-name="copyright" unicode="&#xa9;" horiz-adv-x="833" 
d="M416 718q74 0 139 -26.5t118 -79.5q51 -51 78 -116t27 -139q0 -75 -26.5 -139.5t-77.5 -114.5q-54 -53 -120 -80.5t-138 -27.5t-137 27.5t-117 79.5t-79.5 117.5t-27.5 137.5t28 137.5t80 118.5q103 105 253 105zM417 665q-63 0 -118 -22t-99 -67q-45 -45 -68 -101.5
t-23 -117.5q0 -62 23 -117t68 -100t100.5 -68t116.5 -23t117 23.5t102 68.5q89 87 89 216q0 63 -22.5 118.5t-66.5 99.5q-45 45 -100.5 67.5t-118.5 22.5zM508 441q-5 36 -29.5 55.5t-63.5 19.5q-47 0 -75 -40.5t-28 -118.5q0 -75 28.5 -115t79.5 -40q38 0 62.5 21t29.5 61
h81q-4 -66 -52 -106t-124 -40q-89 0 -141.5 57.5t-52.5 158.5q0 51 14 92.5t40 70t62 44t80 15.5q72 0 118.5 -37.5t51.5 -97.5h-81z" />
    <glyph glyph-name="ordfeminine" unicode="&#xaa;" horiz-adv-x="437" 
d="M305 554q0 51 -25.5 78.5t-70.5 27.5t-70.5 -28.5t-25.5 -80.5t25 -80t70 -28q42 0 69.5 29.5t27.5 81.5zM302 391v42q-42 -55 -114 -55q-73 0 -116 46t-43 129q0 39 11.5 71t32.5 54.5t49.5 35t62.5 12.5q43 0 73 -16.5t44 -47.5v53h80v-324h-80z" />
    <glyph glyph-name="guillemotleft" unicode="&#xab;" horiz-adv-x="454" 
d="M230 387l-100 -158l100 -158l-67 -41l-124 199l124 199zM416 387l-101 -158l101 -158l-68 -41l-124 199l124 199z" />
    <glyph glyph-name="logicalnot" unicode="&#xac;" horiz-adv-x="833" 
d="M709 421v-245h-81v164h-504v81h585z" />
    <glyph glyph-name="registered" unicode="&#xae;" horiz-adv-x="833" 
d="M416 718q75 0 140.5 -27t118.5 -81q51 -51 77 -115.5t26 -137.5q0 -75 -27 -140t-79 -116q-54 -52 -119.5 -79t-136.5 -27q-72 0 -138 28t-118 81q-51 52 -78 116.5t-27 136.5t28 138.5t81 119.5q103 103 252 103zM417 665q-127 0 -215 -88q-45 -46 -69 -102.5
t-24 -117.5t22.5 -116t66.5 -100q45 -45 100 -68.5t114 -23.5q130 0 223 90q44 42 67 97t23 116q0 131 -88 221q-92 92 -220 92zM425 566q86 0 128.5 -28t42.5 -82q0 -45 -23 -73.5t-67 -38.5l90 -183h-97l-80 169h-63v-169h-87v405h156zM356 384h57q48 0 71 14.5t23 47.5
q0 35 -24 50t-74 15h-53v-127z" />
    <glyph glyph-name="macron" unicode="&#xaf;" 
d="M121 632h257v-69h-257v69z" />
    <glyph glyph-name="degree" unicode="&#xb0;" horiz-adv-x="329" 
d="M165 713q30 0 56 -11.5t45.5 -31t31 -46t11.5 -56.5q0 -29 -11.5 -55.5t-31 -46t-46 -31t-56.5 -11.5t-56 11t-45.5 30.5t-30.5 46t-11 56.5t11.5 56.5t31 46t45.5 31t56 11.5zM165 659q-38 0 -64.5 -26t-26.5 -64t26.5 -64.5t64.5 -26.5t64 27t26 64q0 38 -26 64t-64 26
z" />
    <glyph glyph-name="plusminus" unicode="&#xb1;" horiz-adv-x="833" 
d="M458 589v-163h251v-81h-251v-163h-83v163h-251v81h251v163h83zM709 89v-82h-585v82h585z" />
    <glyph glyph-name="twosuperior" unicode="&#xb2;" horiz-adv-x="399" 
d="M330 281h-316l176 192q63 69 63 113q0 32 -20.5 50t-56.5 18q-32 0 -53.5 -18t-23.5 -48h-74q0 57 42.5 91.5t114.5 34.5q69 0 108 -31.5t39 -87.5q0 -50 -32.5 -94.5t-85.5 -100.5l-61 -63h180v-56z" />
    <glyph glyph-name="threesuperior" unicode="&#xb3;" horiz-adv-x="399" 
d="M104 396v-4q0 -29 22 -47t60 -18q44 0 67 19.5t23 56.5q0 77 -96 77h-14v56q3 0 6.5 -0.5t7.5 -0.5q84 0 84 63q0 28 -19.5 44t-51.5 16q-35 0 -54 -15t-20 -42h-69q3 54 40 83.5t105 29.5q66 0 103.5 -30.5t37.5 -83.5q0 -39 -21.5 -64.5t-59.5 -30.5q45 -8 68.5 -35.5
t23.5 -75.5q0 -57 -43 -90.5t-121 -33.5q-68 0 -109.5 33.5t-43.5 92.5h74z" />
    <glyph glyph-name="acute" unicode="&#xb4;" 
d="M274 666h110l-143 -133h-60z" />
    <glyph glyph-name="mu" unicode="&#xb5;" horiz-adv-x="590" 
d="M212 528l-61 -310q-6 -28 -6 -51q0 -96 89 -96q63 0 96.5 45t52.5 141l53 271h110l-71 -361q-9 -46 -9 -65q0 -17 7.5 -24.5t25.5 -7.5h8t9 1l-16 -78q-17 -5 -35 -6.5t-38 -1.5q-73 0 -73 61v7q-20 -33 -53 -51t-71 -18t-66 12t-49 41l-48 -247h-112l145 738h112z" />
    <glyph glyph-name="paragraph" unicode="&#xb6;" 
d="M473 674h-57v-674h-63v674h-83v-674h-63v383q-85 3 -132.5 50t-47.5 119q0 38 13.5 69t38 53.5t60 35t79.5 12.5h255v-48z" />
    <glyph glyph-name="periodcentered" unicode="&#xb7;" horiz-adv-x="302" 
d="M87 352q0 27 18.5 45.5t45.5 18.5t45.5 -18.5t18.5 -45.5q0 -26 -18.5 -45t-45.5 -19t-45.5 19t-18.5 45z" />
    <glyph glyph-name="cedilla" unicode="&#xb8;" 
d="M134 -140q77 -18 118 -18q50 0 50 33q0 20 -16 28t-49 8q-5 0 -10 -0.5t-10 -0.5v90h42v-42h8q109 0 109 -85q0 -40 -29.5 -62t-86.5 -22q-49 0 -126 19v52z" />
    <glyph glyph-name="onesuperior" unicode="&#xb9;" horiz-adv-x="399" 
d="M175 651h-98l30 55h137v-425h-69v370z" />
    <glyph glyph-name="ordmasculine" unicode="&#xba;" horiz-adv-x="441" 
d="M29 553q0 72 57 123q27 25 61.5 37.5t72.5 12.5q81 0 136 -51q56 -51 56 -122q0 -73 -56 -124q-57 -51 -136 -51q-38 0 -72.5 13t-61.5 38q-57 51 -57 124zM328 552q0 23 -8.5 42.5t-23 34t-34 23t-41.5 8.5t-42 -8.5t-34.5 -23t-23 -34t-8.5 -42.5t8.5 -42.5t23 -34
t34.5 -23t42 -8.5t41.5 8.5t34 23t23 34t8.5 42.5z" />
    <glyph glyph-name="guillemotright" unicode="&#xbb;" horiz-adv-x="454" 
d="M40 71l100 158l-100 158l67 41l124 -199l-124 -199zM224 71l101 158l-101 158l68 41l124 -199l-124 -199z" />
    <glyph glyph-name="onequarter" unicode="&#xbc;" horiz-adv-x="928" 
d="M166 654h-93l28 51h132v-396h-67v345zM647 722h67l-433 -741h-67zM772 81h-216l262 323h21v-277h55v-46h-55v-81h-67v81zM660 127h112v104v12t2 27z" />
    <glyph glyph-name="onehalf" unicode="&#xbd;" horiz-adv-x="928" 
d="M166 654h-93l28 51h132v-396h-67v345zM647 722h67l-433 -741h-67zM863 0h-302l168 179q30 32 45.5 57.5t15.5 47.5q0 30 -19.5 47t-54.5 17q-31 0 -51 -16.5t-23 -45.5h-70q0 54 40.5 86t109.5 32q66 0 103 -29.5t37 -81.5q0 -47 -30.5 -88t-82.5 -94l-57 -59h171v-52z
" />
    <glyph glyph-name="threequarters" unicode="&#xbe;" horiz-adv-x="928" 
d="M99 416v-3q0 -28 21 -44.5t58 -16.5q41 0 63 18t22 53q0 72 -91 72q-3 0 -6.5 -0.5t-7.5 -0.5v53q4 0 7 -0.5t6 -0.5q81 0 81 59q0 26 -18 41t-49 15q-69 0 -72 -54h-66q4 51 39 78.5t100 27.5q63 0 99 -28.5t36 -77.5q0 -37 -20.5 -60.5t-57.5 -28.5q88 -14 88 -104
q0 -52 -41 -84t-115 -32q-65 0 -104.5 32t-41.5 86h70zM647 722h67l-433 -741h-67zM772 81h-216l262 323h21v-277h55v-46h-55v-81h-67v81zM660 127h112v104v12t2 27z" />
    <glyph glyph-name="questiondown" unicode="&#xbf;" horiz-adv-x="544" 
d="M347 668q0 -26 -19 -45t-45 -19q-27 0 -45.5 18.5t-18.5 45.5q0 26 18.5 44.5t45.5 18.5t45.5 -18.5t18.5 -44.5zM438 168q0 -5 0.5 -9t0.5 -9q0 -78 -46 -123.5t-124 -45.5q-81 0 -128 46t-47 122q0 33 9 57t26.5 43.5t43 35.5t59.5 32q50 25 78.5 43.5t28.5 52.5
q0 24 -18.5 42.5t-46.5 18.5q-67 0 -69 -76h-87v10q0 72 40.5 111.5t115.5 39.5q35 0 64.5 -11t50.5 -30.5t32.5 -45.5t11.5 -57q0 -34 -10 -59.5t-29.5 -45.5t-47.5 -37t-65 -35q-45 -21 -69.5 -39.5t-24.5 -53.5q0 -32 23 -53.5t59 -21.5q40 0 62.5 25.5t22.5 72.5h84z
" />
    <glyph glyph-name="Agrave" unicode="&#xc0;" horiz-adv-x="662" 
d="M473 184h-283l-83 -184h-122l346 743l346 -743h-123zM432 281l-73 163q-6 14 -12.5 34t-14.5 47q-7 -27 -13.5 -47t-12.5 -34l-73 -163h199zM340 785l-143 133h110l93 -133h-60z" />
    <glyph glyph-name="Aacute" unicode="&#xc1;" horiz-adv-x="662" 
d="M473 184h-283l-83 -184h-122l346 743l346 -743h-123zM432 281l-73 163q-6 14 -12.5 34t-14.5 47q-7 -27 -13.5 -47t-12.5 -34l-73 -163h199zM355 918h110l-143 -133h-60z" />
    <glyph glyph-name="Acircumflex" unicode="&#xc2;" horiz-adv-x="662" 
d="M473 184h-283l-83 -184h-122l346 743l346 -743h-123zM432 281l-73 163q-6 14 -12.5 34t-14.5 47q-7 -27 -13.5 -47t-12.5 -34l-73 -163h199zM280 918h102l94 -133h-60l-85 77l-85 -77h-60z" />
    <glyph glyph-name="Atilde" unicode="&#xc3;" horiz-adv-x="662" 
d="M473 184h-283l-83 -184h-122l346 743l346 -743h-123zM432 281l-73 163q-6 14 -12.5 34t-14.5 47q-7 -27 -13.5 -47t-12.5 -34l-73 -163h199zM474 907q-9 -50 -34.5 -76t-60.5 -26q-12 0 -26 3l-61 16q-5 1 -9 1.5t-9 0.5q-17 0 -27 -7.5t-15 -25.5h-44q22 102 92 102
q15 0 30 -4l57 -15q6 -2 12 -2h11q31 0 40 33h44z" />
    <glyph glyph-name="Adieresis" unicode="&#xc4;" horiz-adv-x="662" 
d="M473 184h-283l-83 -184h-122l346 743l346 -743h-123zM432 281l-73 163q-6 14 -12.5 34t-14.5 47q-7 -27 -13.5 -47t-12.5 -34l-73 -163h199zM183 865q0 23 17.5 40.5t41.5 17.5t41 -17t17 -41q0 -26 -16 -43t-42 -17q-25 0 -42 17t-17 43zM361 865q0 23 17.5 40.5
t41.5 17.5t41 -17t17 -41q0 -26 -16 -43t-42 -17q-25 0 -42 17t-17 43z" />
    <glyph glyph-name="Aring" unicode="&#xc5;" horiz-adv-x="662" 
d="M432 281l-73 163q-6 14 -12.5 34t-14.5 47q-7 -27 -13.5 -47t-12.5 -34l-73 -163h199zM473 184h-283l-83 -184h-122l334 715h25l333 -715h-123zM216 847q0 24 9 45.5t24.5 37t36.5 24.5t45 9t45 -9t37 -25t25 -37t9 -45t-9 -45t-24.5 -36.5t-37 -24.5t-45.5 -9t-45 9
t-36.5 24.5t-24.5 36.5t-9 45zM276 847q0 -23 16.5 -39t39.5 -16t39.5 16t16.5 39t-16.5 39.5t-39.5 16.5t-39.5 -16.5t-16.5 -39.5z" />
    <glyph glyph-name="AE" unicode="&#xc6;" horiz-adv-x="911" 
d="M690 616h-262l63 -175h240l38 -102h-239l87 -235h263l39 -104h-377l-68 184h-284l-83 -184h-122l334 715h330zM439 281l-60 163q-11 30 -20 59.5t-15 59.5q-10 -52 -36 -109l-75 -173h206z" />
    <glyph glyph-name="Ccedilla" unicode="&#xc7;" horiz-adv-x="718" 
d="M656 541q-99 84 -220 84q-59 0 -107.5 -20t-83.5 -55.5t-54 -85t-19 -109.5q0 -59 19.5 -108t53 -84t79.5 -54.5t100 -19.5q126 0 231 90v-131q-94 -67 -222 -67q-83 0 -152 27t-122 79t-80.5 121.5t-27.5 147.5q0 79 27.5 147.5t81.5 121.5t122 80t149 27
q65 0 121.5 -18.5t109.5 -55.5zM308 -140q77 -18 118 -18q50 0 50 33q0 20 -16 28t-49 8q-5 0 -10 -0.5t-10 -0.5v90h42v-42h8q109 0 109 -85q0 -40 -29.5 -62t-86.5 -22q-49 0 -126 19v52z" />
    <glyph glyph-name="Egrave" unicode="&#xc8;" horiz-adv-x="532" 
d="M82 715h399v-99h-283v-179h283v-102h-283v-231h283v-104h-399v715zM292 785l-143 133h110l93 -133h-60z" />
    <glyph glyph-name="Eacute" unicode="&#xc9;" horiz-adv-x="532" 
d="M82 715h399v-99h-283v-179h283v-102h-283v-231h283v-104h-399v715zM307 918h110l-143 -133h-60z" />
    <glyph glyph-name="Ecircumflex" unicode="&#xca;" horiz-adv-x="532" 
d="M82 715h399v-99h-283v-179h283v-102h-283v-231h283v-104h-399v715zM232 918h102l94 -133h-60l-85 77l-85 -77h-60z" />
    <glyph glyph-name="Edieresis" unicode="&#xcb;" horiz-adv-x="532" 
d="M82 715h399v-99h-283v-179h283v-102h-283v-231h283v-104h-399v715zM135 865q0 23 17.5 40.5t41.5 17.5t41 -17t17 -41q0 -26 -16 -43t-42 -17q-25 0 -42 17t-17 43zM313 865q0 23 17.5 40.5t41.5 17.5t41 -17t17 -41q0 -26 -16 -43t-42 -17q-25 0 -42 17t-17 43z" />
    <glyph glyph-name="Igrave" unicode="&#xcc;" horiz-adv-x="285" 
d="M84 715h116v-715h-116v715zM152 785l-143 133h110l93 -133h-60z" />
    <glyph glyph-name="Iacute" unicode="&#xcd;" horiz-adv-x="285" 
d="M84 715h116v-715h-116v715zM167 918h110l-143 -133h-60z" />
    <glyph glyph-name="Icircumflex" unicode="&#xce;" horiz-adv-x="285" 
d="M84 715h116v-715h-116v715zM92 918h102l94 -133h-60l-85 77l-85 -77h-60z" />
    <glyph glyph-name="Idieresis" unicode="&#xcf;" horiz-adv-x="285" 
d="M84 715h116v-715h-116v715zM-5 865q0 23 17.5 40.5t41.5 17.5t41 -17t17 -41q0 -26 -16 -43t-42 -17q-25 0 -42 17t-17 43zM173 865q0 23 17.5 40.5t41.5 17.5t41 -17t17 -41q0 -26 -16 -43t-42 -17q-25 0 -42 17t-17 43z" />
    <glyph glyph-name="Eth" unicode="&#xd0;" horiz-adv-x="747" 
d="M89 353h-89v90h89v272h157q50 0 95 -1t85 -7.5t75.5 -20t68.5 -38.5q62 -48 94 -121t32 -170t-32 -169.5t-94 -120.5q-31 -24 -64.5 -37.5t-69.5 -20t-75.5 -8t-83.5 -1.5h-31h-157v353zM247 105h56q60 0 106.5 7.5t84.5 39.5q81 69 81 206t-81 206q-40 33 -90 40t-115 7
h-42h-42v-168h189v-90h-189v-248h42z" />
    <glyph glyph-name="Ntilde" unicode="&#xd1;" horiz-adv-x="803" 
d="M82 743l454 -437q22 -21 41 -42.5t37 -44.5v496h107v-743l-463 445q-38 36 -69 80v-497h-107v743zM545 907q-9 -50 -34.5 -76t-60.5 -26q-12 0 -26 3l-61 16q-5 1 -9 1.5t-9 0.5q-17 0 -27 -7.5t-15 -25.5h-44q22 102 92 102q15 0 30 -4l57 -15q6 -2 12 -2h11q31 0 40 33
h44z" />
    <glyph glyph-name="Ograve" unicode="&#xd2;" horiz-adv-x="866" 
d="M815 356q0 -77 -28.5 -144t-83.5 -121t-124 -82t-146 -28t-147 28t-124 82q-55 54 -83 121t-28 144t28 144.5t83 121.5t124 81.5t147 27.5t146.5 -27.5t123.5 -81.5t83.5 -122t28.5 -144zM694 356q0 54 -19.5 103t-57.5 87q-37 38 -84.5 58t-99.5 20t-99.5 -20t-85.5 -58
t-57 -87t-19 -103t19 -102.5t57 -86.5t85 -58t100 -20q108 0 184 78q38 38 57.5 86.5t19.5 102.5zM442 785l-143 133h110l93 -133h-60z" />
    <glyph glyph-name="Oacute" unicode="&#xd3;" horiz-adv-x="866" 
d="M815 356q0 -77 -28.5 -144t-83.5 -121t-124 -82t-146 -28t-147 28t-124 82q-55 54 -83 121t-28 144t28 144.5t83 121.5t124 81.5t147 27.5t146.5 -27.5t123.5 -81.5t83.5 -122t28.5 -144zM694 356q0 54 -19.5 103t-57.5 87q-37 38 -84.5 58t-99.5 20t-99.5 -20t-85.5 -58
t-57 -87t-19 -103t19 -102.5t57 -86.5t85 -58t100 -20q108 0 184 78q38 38 57.5 86.5t19.5 102.5zM457 918h110l-143 -133h-60z" />
    <glyph glyph-name="Ocircumflex" unicode="&#xd4;" horiz-adv-x="866" 
d="M815 356q0 -77 -28.5 -144t-83.5 -121t-124 -82t-146 -28t-147 28t-124 82q-55 54 -83 121t-28 144t28 144.5t83 121.5t124 81.5t147 27.5t146.5 -27.5t123.5 -81.5t83.5 -122t28.5 -144zM694 356q0 54 -19.5 103t-57.5 87q-37 38 -84.5 58t-99.5 20t-99.5 -20t-85.5 -58
t-57 -87t-19 -103t19 -102.5t57 -86.5t85 -58t100 -20q108 0 184 78q38 38 57.5 86.5t19.5 102.5zM382 918h102l94 -133h-60l-85 77l-85 -77h-60z" />
    <glyph glyph-name="Otilde" unicode="&#xd5;" horiz-adv-x="866" 
d="M815 356q0 -77 -28.5 -144t-83.5 -121t-124 -82t-146 -28t-147 28t-124 82q-55 54 -83 121t-28 144t28 144.5t83 121.5t124 81.5t147 27.5t146.5 -27.5t123.5 -81.5t83.5 -122t28.5 -144zM694 356q0 54 -19.5 103t-57.5 87q-37 38 -84.5 58t-99.5 20t-99.5 -20t-85.5 -58
t-57 -87t-19 -103t19 -102.5t57 -86.5t85 -58t100 -20q108 0 184 78q38 38 57.5 86.5t19.5 102.5zM576 907q-9 -50 -34.5 -76t-60.5 -26q-12 0 -26 3l-61 16q-5 1 -9 1.5t-9 0.5q-17 0 -27 -7.5t-15 -25.5h-44q22 102 92 102q15 0 30 -4l57 -15q6 -2 12 -2h11q31 0 40 33h44
z" />
    <glyph glyph-name="Odieresis" unicode="&#xd6;" horiz-adv-x="866" 
d="M815 356q0 -77 -28.5 -144t-83.5 -121t-124 -82t-146 -28t-147 28t-124 82q-55 54 -83 121t-28 144t28 144.5t83 121.5t124 81.5t147 27.5t146.5 -27.5t123.5 -81.5t83.5 -122t28.5 -144zM694 356q0 54 -19.5 103t-57.5 87q-37 38 -84.5 58t-99.5 20t-99.5 -20t-85.5 -58
t-57 -87t-19 -103t19 -102.5t57 -86.5t85 -58t100 -20q108 0 184 78q38 38 57.5 86.5t19.5 102.5zM285 865q0 23 17.5 40.5t41.5 17.5t41 -17t17 -41q0 -26 -16 -43t-42 -17q-25 0 -42 17t-17 43zM463 865q0 23 17.5 40.5t41.5 17.5t41 -17t17 -41q0 -26 -16 -43t-42 -17
q-25 0 -42 17t-17 43z" />
    <glyph glyph-name="multiply" unicode="&#xd7;" horiz-adv-x="833" 
d="M421 356l225 224l57 -57l-224 -225l224 -224l-57 -58l-225 225l-224 -225l-57 58l224 224l-224 225l57 57z" />
    <glyph glyph-name="Oslash" unicode="&#xd8;" horiz-adv-x="866" 
d="M578 579q-34 24 -69 35t-76 11q-52 0 -100 -20t-85 -58q-38 -38 -57 -87t-19 -103q0 -90 51 -158zM279 141q65 -51 147 -51q116 0 192 78q38 38 57 86.5t19 102.5q0 94 -58 167zM53 17l90 96q-48 54 -70 113.5t-22 130.5q0 76 28 143.5t83 121.5q54 54 123.5 82t147.5 28
q58 0 112.5 -18t109.5 -53l84 90l63 -51l-86 -92q99 -109 99 -251q0 -76 -28.5 -143.5t-83.5 -121.5q-54 -53 -123.5 -81t-146.5 -28q-127 0 -231 76l-88 -95z" />
    <glyph glyph-name="Ugrave" unicode="&#xd9;" horiz-adv-x="744" 
d="M194 715v-434q0 -194 178 -194t178 194v434h116v-445q0 -289 -294 -289q-293 0 -293 289v445h115zM381 785l-143 133h110l93 -133h-60z" />
    <glyph glyph-name="Uacute" unicode="&#xda;" horiz-adv-x="744" 
d="M194 715v-434q0 -194 178 -194t178 194v434h116v-445q0 -289 -294 -289q-293 0 -293 289v445h115zM396 918h110l-143 -133h-60z" />
    <glyph glyph-name="Ucircumflex" unicode="&#xdb;" horiz-adv-x="744" 
d="M194 715v-434q0 -194 178 -194t178 194v434h116v-445q0 -289 -294 -289q-293 0 -293 289v445h115zM321 918h102l94 -133h-60l-85 77l-85 -77h-60z" />
    <glyph glyph-name="Udieresis" unicode="&#xdc;" horiz-adv-x="744" 
d="M194 715v-434q0 -194 178 -194t178 194v434h116v-445q0 -289 -294 -289q-293 0 -293 289v445h115zM224 865q0 23 17.5 40.5t41.5 17.5t41 -17t17 -41q0 -26 -16 -43t-42 -17q-25 0 -42 17t-17 43zM402 865q0 23 17.5 40.5t41.5 17.5t41 -17t17 -41q0 -26 -16 -43t-42 -17
q-25 0 -42 17t-17 43z" />
    <glyph glyph-name="Yacute" unicode="&#xdd;" horiz-adv-x="593" 
d="M236 327l-241 388h122l150 -243q2 -4 10 -18t20 -39q14 35 30 60l154 240h116l-246 -388v-327h-115v327zM321 918h110l-143 -133h-60z" />
    <glyph glyph-name="Thorn" unicode="&#xde;" horiz-adv-x="532" 
d="M191 0h-109v715h109v-147h44h12q59 0 105.5 -5t84.5 -32q33 -24 52.5 -66t19.5 -94t-19.5 -94.5t-52.5 -66.5q-36 -26 -80 -31t-99 -5h-23h-44v-174zM228 269q40 0 70 3t50.5 13t30.5 29t10 50q0 32 -10 52.5t-30 32t-50 15.5t-71 4h-37v-199h37z" />
    <glyph glyph-name="germandbls" unicode="&#xdf;" horiz-adv-x="602" 
d="M250 94q30 -15 66 -15q65 0 99.5 36t34.5 104q0 141 -166 141h-17v98q5 0 8.5 -0.5t7.5 -0.5q53 0 81 27t28 76q0 56 -26 84.5t-74 28.5q-35 0 -56 -11t-32 -33t-14.5 -54.5t-3.5 -75.5v-499h-106v363h-57v100h57v114q0 41 15.5 76t43.5 60.5t68 39.5t89 14
q48 0 86 -13.5t65 -38.5t41.5 -60t14.5 -77q0 -123 -135 -163q94 -5 143.5 -58t49.5 -147q0 -109 -58 -169t-169 -60q-24 0 -44.5 4t-39.5 15v94z" />
    <glyph glyph-name="agrave" unicode="&#xe0;" horiz-adv-x="582" 
d="M406 233q0 73 -33.5 112.5t-93.5 39.5t-94.5 -41t-34.5 -115q0 -75 33.5 -114.5t93.5 -39.5q55 0 92 42t37 116zM403 0v60q-57 -79 -153 -79q-97 0 -154 66t-57 185q0 56 15.5 101.5t43 78t65.5 50t84 17.5q57 0 97 -23.5t59 -68.5v76h106v-463h-106zM305 533l-143 133
h110l93 -133h-60z" />
    <glyph glyph-name="aacute" unicode="&#xe1;" horiz-adv-x="582" 
d="M406 233q0 73 -33.5 112.5t-93.5 39.5t-94.5 -41t-34.5 -115q0 -75 33.5 -114.5t93.5 -39.5q55 0 92 42t37 116zM403 0v60q-57 -79 -153 -79q-97 0 -154 66t-57 185q0 56 15.5 101.5t43 78t65.5 50t84 17.5q57 0 97 -23.5t59 -68.5v76h106v-463h-106zM320 666h110
l-143 -133h-60z" />
    <glyph glyph-name="acircumflex" unicode="&#xe2;" horiz-adv-x="582" 
d="M406 233q0 73 -33.5 112.5t-93.5 39.5t-94.5 -41t-34.5 -115q0 -75 33.5 -114.5t93.5 -39.5q55 0 92 42t37 116zM403 0v60q-57 -79 -153 -79q-97 0 -154 66t-57 185q0 56 15.5 101.5t43 78t65.5 50t84 17.5q57 0 97 -23.5t59 -68.5v76h106v-463h-106zM245 666h102
l94 -133h-60l-85 77l-85 -77h-60z" />
    <glyph glyph-name="atilde" unicode="&#xe3;" horiz-adv-x="582" 
d="M406 233q0 73 -33.5 112.5t-93.5 39.5t-94.5 -41t-34.5 -115q0 -75 33.5 -114.5t93.5 -39.5q55 0 92 42t37 116zM403 0v60q-57 -79 -153 -79q-97 0 -154 66t-57 185q0 56 15.5 101.5t43 78t65.5 50t84 17.5q57 0 97 -23.5t59 -68.5v76h106v-463h-106zM439 655
q-9 -50 -34.5 -76t-60.5 -26q-12 0 -26 3l-61 16q-5 1 -9 1.5t-9 0.5q-17 0 -27 -7.5t-15 -25.5h-44q22 102 92 102q15 0 30 -4l57 -15q6 -2 12 -2h11q31 0 40 33h44z" />
    <glyph glyph-name="adieresis" unicode="&#xe4;" horiz-adv-x="582" 
d="M406 233q0 73 -33.5 112.5t-93.5 39.5t-94.5 -41t-34.5 -115q0 -75 33.5 -114.5t93.5 -39.5q55 0 92 42t37 116zM403 0v60q-57 -79 -153 -79q-97 0 -154 66t-57 185q0 56 15.5 101.5t43 78t65.5 50t84 17.5q57 0 97 -23.5t59 -68.5v76h106v-463h-106zM148 613
q0 23 17.5 40.5t41.5 17.5t41 -17t17 -41q0 -26 -16 -43t-42 -17q-25 0 -42 17t-17 43zM326 613q0 23 17.5 40.5t41.5 17.5t41 -17t17 -41q0 -26 -16 -43t-42 -17q-25 0 -42 17t-17 43z" />
    <glyph glyph-name="aring" unicode="&#xe5;" horiz-adv-x="582" 
d="M403 0v60q-57 -79 -153 -79q-97 0 -154 66t-57 185q0 56 15.5 101.5t43 78t65.5 50t84 17.5q57 0 97 -23.5t59 -68.5v76h106v-463h-106zM406 233q0 73 -33.5 112.5t-93.5 39.5t-94.5 -41t-34.5 -115q0 -75 33.5 -114.5t93.5 -39.5q55 0 92 42t37 116zM161 627
q0 24 9 45.5t25 37t37 24.5t45 9t45 -9t36.5 -25t24.5 -37t9 -45t-9 -45t-24.5 -36.5t-36.5 -24.5t-45 -9t-45.5 9t-37 24.5t-24.5 36.5t-9 45zM222 627q0 -23 16 -39t39 -16t39.5 16t16.5 39t-16.5 39.5t-39.5 16.5t-39 -16.5t-16 -39.5z" />
    <glyph glyph-name="ae" unicode="&#xe6;" horiz-adv-x="862" 
d="M359 146q0 31 -28 50.5t-79 19.5t-79.5 -19.5t-28.5 -51.5t25.5 -50.5t72.5 -18.5q57 0 87 19t30 51zM451 216q4 -66 38.5 -103t92.5 -37q51 0 85 22.5t60 70.5l89 -50q-77 -138 -232 -138q-58 0 -100 18t-73 58q-32 -36 -81.5 -56t-110.5 -20q-87 0 -136 45t-49 117
q0 35 13 63.5t37 48.5t57.5 31t73.5 11q41 0 75 -8t64 -26q1 5 1 9v9q0 53 -34 80.5t-101 27.5q-35 0 -72.5 -12t-72.5 -35v99q35 20 72 29.5t77 9.5q66 0 110.5 -18t76.5 -64q29 40 72.5 61t100.5 21q112 0 174.5 -64t62.5 -182v-18h-370zM711 287q-12 102 -124 102
q-104 0 -129 -102h253z" />
    <glyph glyph-name="ccedilla" unicode="&#xe7;" horiz-adv-x="454" 
d="M419 331q-24 26 -56.5 40.5t-70.5 14.5q-65 0 -104 -41.5t-39 -111.5q0 -73 39.5 -114t108.5 -41q76 0 122 58v-122q-58 -33 -134 -33q-54 0 -99.5 18t-78 51t-50.5 79t-18 101q0 56 18.5 102t52.5 78.5t81.5 50.5t104.5 18q71 0 123 -29v-119zM155 -140q77 -18 118 -18
q50 0 50 33q0 20 -16 28t-49 8q-5 0 -10 -0.5t-10 -0.5v90h42v-42h8q109 0 109 -85q0 -40 -29.5 -62t-86.5 -22q-49 0 -126 19v52z" />
    <glyph glyph-name="egrave" unicode="&#xe8;" horiz-adv-x="556" 
d="M409 287q-6 51 -38 76.5t-87 25.5q-103 0 -128 -102h253zM149 216q4 -66 38.5 -102t92.5 -36q51 0 85 21.5t60 69.5l89 -50q-77 -138 -232 -138q-55 0 -100 17.5t-77 50t-49 78.5t-17 103q0 54 17.5 99.5t50 79t77 52t98.5 18.5q112 0 174.5 -63.5t62.5 -179.5v-20h-370z
M291 533l-143 133h110l93 -133h-60z" />
    <glyph glyph-name="eacute" unicode="&#xe9;" horiz-adv-x="556" 
d="M409 287q-6 51 -38 76.5t-87 25.5q-103 0 -128 -102h253zM149 216q4 -66 38.5 -102t92.5 -36q51 0 85 21.5t60 69.5l89 -50q-77 -138 -232 -138q-55 0 -100 17.5t-77 50t-49 78.5t-17 103q0 54 17.5 99.5t50 79t77 52t98.5 18.5q112 0 174.5 -63.5t62.5 -179.5v-20h-370z
M306 666h110l-143 -133h-60z" />
    <glyph glyph-name="ecircumflex" unicode="&#xea;" horiz-adv-x="556" 
d="M409 287q-6 51 -38 76.5t-87 25.5q-103 0 -128 -102h253zM149 216q4 -66 38.5 -102t92.5 -36q51 0 85 21.5t60 69.5l89 -50q-77 -138 -232 -138q-55 0 -100 17.5t-77 50t-49 78.5t-17 103q0 54 17.5 99.5t50 79t77 52t98.5 18.5q112 0 174.5 -63.5t62.5 -179.5v-20h-370z
M231 666h102l94 -133h-60l-85 77l-85 -77h-60z" />
    <glyph glyph-name="edieresis" unicode="&#xeb;" horiz-adv-x="556" 
d="M409 287q-6 51 -38 76.5t-87 25.5q-103 0 -128 -102h253zM149 216q4 -66 38.5 -102t92.5 -36q51 0 85 21.5t60 69.5l89 -50q-77 -138 -232 -138q-55 0 -100 17.5t-77 50t-49 78.5t-17 103q0 54 17.5 99.5t50 79t77 52t98.5 18.5q112 0 174.5 -63.5t62.5 -179.5v-20h-370z
M134 613q0 23 17.5 40.5t41.5 17.5t41 -17t17 -41q0 -26 -16 -43t-42 -17q-25 0 -42 17t-17 43zM312 613q0 23 17.5 40.5t41.5 17.5t41 -17t17 -41q0 -26 -16 -43t-42 -17q-25 0 -42 17t-17 43z" />
    <glyph glyph-name="igrave" unicode="&#xec;" horiz-adv-x="262" 
d="M78 463h106v-463h-106v463zM140 533l-143 133h110l93 -133h-60z" />
    <glyph glyph-name="iacute" unicode="&#xed;" horiz-adv-x="262" 
d="M78 463h106v-463h-106v463zM155 666h110l-143 -133h-60z" />
    <glyph glyph-name="icircumflex" unicode="&#xee;" horiz-adv-x="262" 
d="M78 463h106v-463h-106v463zM80 666h102l94 -133h-60l-85 77l-85 -77h-60z" />
    <glyph glyph-name="idieresis" unicode="&#xef;" horiz-adv-x="262" 
d="M78 463h106v-463h-106v463zM-17 613q0 23 17.5 40.5t41.5 17.5t41 -17t17 -41q0 -26 -16 -43t-42 -17q-25 0 -42 17t-17 43zM161 613q0 23 17.5 40.5t41.5 17.5t41 -17t17 -41q0 -26 -16 -43t-42 -17q-25 0 -42 17t-17 43z" />
    <glyph glyph-name="eth" unicode="&#xf0;" horiz-adv-x="588" 
d="M422 397q-49 106 -121 162l-142 -66l-29 57l117 54q-27 21 -56 38t-59 34l53 78q48 -29 88 -54.5t72 -51.5l155 70l29 -56l-131 -60q75 -72 113 -159t38 -184q0 -65 -18 -116.5t-51.5 -87.5t-81 -55t-105.5 -19q-51 0 -97 18t-83 52q-36 33 -55 76.5t-19 91.5t19.5 90.5
t55.5 75.5q69 65 173 65q74 0 135 -53zM437 216q0 29 -11 54.5t-30.5 44.5t-45.5 30t-56 11t-56.5 -11t-45.5 -30t-30 -44.5t-11 -54.5t11 -54.5t30.5 -44.5t45.5 -30t56 -11t56 11t45.5 30t30.5 44.5t11 54.5z" />
    <glyph glyph-name="ntilde" unicode="&#xf1;" horiz-adv-x="588" 
d="M73 463h100v-76q32 49 75 70.5t104 21.5q104 0 145 -65q17 -26 20 -58.5t3 -74.5v-281h-107v238q0 39 -3.5 67t-14 47t-30.5 28t-53 9q-38 0 -66.5 -13.5t-45.5 -38.5q-14 -21 -17.5 -51.5t-3.5 -74.5v-211h-106v463zM445 655q-9 -50 -34.5 -76t-60.5 -26q-12 0 -26 3
l-61 16q-5 1 -9 1.5t-9 0.5q-17 0 -27 -7.5t-15 -25.5h-44q22 102 92 102q15 0 30 -4l57 -15q6 -2 12 -2h11q31 0 40 33h44z" />
    <glyph glyph-name="ograve" unicode="&#xf2;" horiz-adv-x="588" 
d="M39 231q0 51 19 96t56 80q36 35 82 53.5t97 18.5q52 0 98 -18.5t83 -54.5q36 -35 55.5 -79.5t19.5 -95.5q0 -105 -74 -176q-38 -36 -84 -55t-98 -19q-51 0 -97 19t-82 54q-75 73 -75 177zM437 230q0 33 -11 61t-30.5 48.5t-45.5 32.5t-56 12t-56 -12t-45.5 -32.5
t-30.5 -48.5t-11 -61t11 -61t30.5 -48.5t45.5 -32.5t56 -12q29 0 55 12t45.5 32.5t31 48.5t11.5 61zM303 533l-143 133h110l93 -133h-60z" />
    <glyph glyph-name="oacute" unicode="&#xf3;" horiz-adv-x="588" 
d="M39 231q0 51 19 96t56 80q36 35 82 53.5t97 18.5q52 0 98 -18.5t83 -54.5q36 -35 55.5 -79.5t19.5 -95.5q0 -105 -74 -176q-38 -36 -84 -55t-98 -19q-51 0 -97 19t-82 54q-75 73 -75 177zM437 230q0 33 -11 61t-30.5 48.5t-45.5 32.5t-56 12t-56 -12t-45.5 -32.5
t-30.5 -48.5t-11 -61t11 -61t30.5 -48.5t45.5 -32.5t56 -12q29 0 55 12t45.5 32.5t31 48.5t11.5 61zM318 666h110l-143 -133h-60z" />
    <glyph glyph-name="ocircumflex" unicode="&#xf4;" horiz-adv-x="588" 
d="M39 231q0 51 19 96t56 80q36 35 82 53.5t97 18.5q52 0 98 -18.5t83 -54.5q36 -35 55.5 -79.5t19.5 -95.5q0 -105 -74 -176q-38 -36 -84 -55t-98 -19q-51 0 -97 19t-82 54q-75 73 -75 177zM437 230q0 33 -11 61t-30.5 48.5t-45.5 32.5t-56 12t-56 -12t-45.5 -32.5
t-30.5 -48.5t-11 -61t11 -61t30.5 -48.5t45.5 -32.5t56 -12q29 0 55 12t45.5 32.5t31 48.5t11.5 61zM243 666h102l94 -133h-60l-85 77l-85 -77h-60z" />
    <glyph glyph-name="otilde" unicode="&#xf5;" horiz-adv-x="588" 
d="M39 231q0 51 19 96t56 80q36 35 82 53.5t97 18.5q52 0 98 -18.5t83 -54.5q36 -35 55.5 -79.5t19.5 -95.5q0 -105 -74 -176q-38 -36 -84 -55t-98 -19q-51 0 -97 19t-82 54q-75 73 -75 177zM437 230q0 33 -11 61t-30.5 48.5t-45.5 32.5t-56 12t-56 -12t-45.5 -32.5
t-30.5 -48.5t-11 -61t11 -61t30.5 -48.5t45.5 -32.5t56 -12q29 0 55 12t45.5 32.5t31 48.5t11.5 61zM437 655q-9 -50 -34.5 -76t-60.5 -26q-12 0 -26 3l-61 16q-5 1 -9 1.5t-9 0.5q-17 0 -27 -7.5t-15 -25.5h-44q22 102 92 102q15 0 30 -4l57 -15q6 -2 12 -2h11q31 0 40 33
h44z" />
    <glyph glyph-name="odieresis" unicode="&#xf6;" horiz-adv-x="588" 
d="M39 231q0 51 19 96t56 80q36 35 82 53.5t97 18.5q52 0 98 -18.5t83 -54.5q36 -35 55.5 -79.5t19.5 -95.5q0 -105 -74 -176q-38 -36 -84 -55t-98 -19q-51 0 -97 19t-82 54q-75 73 -75 177zM437 230q0 33 -11 61t-30.5 48.5t-45.5 32.5t-56 12t-56 -12t-45.5 -32.5
t-30.5 -48.5t-11 -61t11 -61t30.5 -48.5t45.5 -32.5t56 -12q29 0 55 12t45.5 32.5t31 48.5t11.5 61zM146 613q0 23 17.5 40.5t41.5 17.5t41 -17t17 -41q0 -26 -16 -43t-42 -17q-25 0 -42 17t-17 43zM324 613q0 23 17.5 40.5t41.5 17.5t41 -17t17 -41q0 -26 -16 -43t-42 -17
q-25 0 -42 17t-17 43z" />
    <glyph glyph-name="divide" unicode="&#xf7;" horiz-adv-x="833" 
d="M417 551q28 0 47.5 -20t19.5 -48q0 -27 -19 -46.5t-48 -19.5t-48 19t-19 47t20 48t47 20zM709 339v-81h-585v81h585zM417 179q28 0 47.5 -19.5t19.5 -47.5q0 -27 -19 -46.5t-48 -19.5t-48 19t-19 47t20 47.5t47 19.5z" />
    <glyph glyph-name="oslash" unicode="&#xf8;" horiz-adv-x="588" 
d="M34 14l61 62q-55 71 -55 153q0 54 19.5 100t53.5 79.5t81.5 52.5t102.5 19q92 0 155 -55l61 62l41 -39l-62 -63q56 -72 56 -154q0 -54 -19.5 -99.5t-54 -79t-82 -52.5t-102.5 -19q-91 0 -153 54l-64 -61zM380 353q-35 31 -81 31q-33 0 -60.5 -12t-47.5 -32.5t-31 -48
t-11 -59.5q0 -40 22 -83zM207 106q37 -28 83 -28q32 0 59 11t46.5 31t30.5 47.5t11 59.5q0 42 -22 83z" />
    <glyph glyph-name="ugrave" unicode="&#xf9;" horiz-adv-x="588" 
d="M176 202q0 -66 26.5 -96t91.5 -30t91.5 30t26.5 96v261h106v-229q0 -130 -52 -191.5t-171 -61.5q-121 0 -173 61.5t-52 191.5v229h106v-261zM303 533l-143 133h110l93 -133h-60z" />
    <glyph glyph-name="uacute" unicode="&#xfa;" horiz-adv-x="588" 
d="M176 202q0 -66 26.5 -96t91.5 -30t91.5 30t26.5 96v261h106v-229q0 -130 -52 -191.5t-171 -61.5q-121 0 -173 61.5t-52 191.5v229h106v-261zM318 666h110l-143 -133h-60z" />
    <glyph glyph-name="ucircumflex" unicode="&#xfb;" horiz-adv-x="588" 
d="M176 202q0 -66 26.5 -96t91.5 -30t91.5 30t26.5 96v261h106v-229q0 -130 -52 -191.5t-171 -61.5q-121 0 -173 61.5t-52 191.5v229h106v-261zM243 666h102l94 -133h-60l-85 77l-85 -77h-60z" />
    <glyph glyph-name="udieresis" unicode="&#xfc;" horiz-adv-x="588" 
d="M176 202q0 -66 26.5 -96t91.5 -30t91.5 30t26.5 96v261h106v-229q0 -130 -52 -191.5t-171 -61.5q-121 0 -173 61.5t-52 191.5v229h106v-261zM146 613q0 23 17.5 40.5t41.5 17.5t41 -17t17 -41q0 -26 -16 -43t-42 -17q-25 0 -42 17t-17 43zM324 613q0 23 17.5 40.5
t41.5 17.5t41 -17t17 -41q0 -26 -16 -43t-42 -17q-25 0 -42 17t-17 43z" />
    <glyph glyph-name="yacute" unicode="&#xfd;" horiz-adv-x="471" 
d="M44 -218l127 258l-170 423h117l85 -240q8 -23 13.5 -46t8.5 -45q5 20 14 41t19 43l114 247h115l-334 -681h-109zM260 666h110l-143 -133h-60z" />
    <glyph glyph-name="thorn" unicode="&#xfe;" horiz-adv-x="582" 
d="M179 -218h-106v975h106v-370q19 45 59.5 68.5t97.5 23.5q46 0 84 -17.5t65.5 -50t42.5 -78t15 -101.5q0 -119 -57 -185t-154 -66q-96 0 -153 79v-278zM176 233q0 -75 36.5 -116.5t93.5 -41.5q60 0 93 39.5t33 114.5q0 74 -34.5 115t-94.5 41t-93.5 -39.5t-33.5 -112.5z
" />
    <glyph glyph-name="ydieresis" unicode="&#xff;" horiz-adv-x="471" 
d="M44 -218l127 258l-170 423h117l85 -240q8 -23 13.5 -46t8.5 -45q5 20 14 41t19 43l114 247h115l-334 -681h-109zM88 613q0 23 17.5 40.5t41.5 17.5t41 -17t17 -41q0 -26 -16 -43t-42 -17q-25 0 -42 17t-17 43zM266 613q0 23 17.5 40.5t41.5 17.5t41 -17t17 -41
q0 -26 -16 -43t-42 -17q-25 0 -42 17t-17 43z" />
    <glyph glyph-name="dotlessi" unicode="&#x131;" horiz-adv-x="262" 
d="M78 463h106v-463h-106v463z" />
    <glyph glyph-name="Lslash" unicode="&#x141;" horiz-adv-x="477" 
d="M89 267l-71 -49l-50 70l121 87v340h116v-274l114 80l50 -72l-164 -115v-230h260v-104h-376v267z" />
    <glyph glyph-name="lslash" unicode="&#x142;" horiz-adv-x="275" 
d="M84 272l-54 -38l-47 69l101 72v382h107v-317l54 38l48 -69l-102 -72v-337h-107v272z" />
    <glyph glyph-name="OE" unicode="&#x152;" horiz-adv-x="1125" 
d="M1072 715v-99h-278v-176h278v-102h-278v-234h278v-104h-385l-1 110q-46 -62 -112 -94.5t-146 -32.5q-76 0 -143.5 27.5t-121.5 81.5t-82 121t-28 144t28 144t82 121t121.5 82t143.5 28q156 0 258 -123l1 106h385zM684 357q0 112 -75 190q-37 38 -83.5 58t-97.5 20
t-97.5 -20t-83.5 -58q-75 -78 -75 -190q0 -54 19 -102.5t56 -86.5t83.5 -58t97.5 -20t97.5 20t83.5 58t56 86.5t19 102.5z" />
    <glyph glyph-name="oe" unicode="&#x153;" horiz-adv-x="949" 
d="M437 230q0 33 -11.5 61t-31 48.5t-45.5 32.5t-56 12t-56 -12t-45.5 -32.5t-30.5 -48.5t-11 -61t11 -61t30.5 -48.5t45.5 -32.5t56 -12q29 0 55.5 12t46 32.5t31 48.5t11.5 61zM485 72q-42 -46 -87.5 -68.5t-101.5 -22.5q-70 0 -129 34q-62 35 -95 91t-33 125
q0 50 19 94.5t54 79.5q37 36 84.5 55t102.5 19q63 0 110.5 -25.5t79.5 -72.5q30 48 74.5 73t108.5 25q112 0 174.5 -63.5t62.5 -179.5v-20h-370q4 -66 38.5 -103t92.5 -37q51 0 85 22.5t60 70.5l89 -50q-77 -138 -232 -138q-63 0 -107.5 21.5t-79.5 69.5zM799 287
q-12 102 -124 102q-104 0 -129 -102h253z" />
    <glyph glyph-name="Scaron" unicode="&#x160;" horiz-adv-x="549" 
d="M134 186q26 -98 138 -98q53 0 83 29t30 77q0 26 -9.5 43.5t-26.5 30.5t-40 24.5t-51 24.5q-48 23 -84.5 45t-61.5 47t-38 55.5t-13 70.5q0 43 15.5 79t43.5 62t67.5 40.5t88.5 14.5q80 0 133 -30.5t73 -87.5l-91 -47q-21 33 -46.5 49t-59.5 16q-48 0 -75 -24.5t-27 -65.5
q0 -26 10 -44t28 -31.5t43 -25.5t55 -26q47 -22 82 -43t58 -46t34 -54.5t11 -68.5q0 -50 -16 -90.5t-47 -69.5t-74.5 -45t-99.5 -16q-92 0 -150 42t-76 120zM190 918l85 -77l85 77h60l-94 -133h-102l-94 133h60z" />
    <glyph glyph-name="scaron" unicode="&#x161;" horiz-adv-x="426" 
d="M108 132q20 -71 104 -71q36 0 56 16.5t20 44.5q0 18 -8 29t-23 18.5t-35 14.5t-44 17q-66 28 -99.5 58.5t-33.5 81.5q0 60 47 99.5t130 39.5q55 0 93 -20t55 -56l-75 -52q-8 22 -28.5 35t-48.5 13q-31 0 -49 -14.5t-18 -38.5q0 -17 9 -27.5t25 -19t38.5 -16t49.5 -18.5
q61 -24 90 -55t29 -82q0 -68 -49 -108t-140 -40q-133 0 -183 103zM128 666l85 -77l85 77h60l-94 -133h-102l-94 133h60z" />
    <glyph glyph-name="Ydieresis" unicode="&#x178;" horiz-adv-x="593" 
d="M236 327l-241 388h122l150 -243q2 -4 10 -18t20 -39q14 35 30 60l154 240h116l-246 -388v-327h-115v327zM149 865q0 23 17.5 40.5t41.5 17.5t41 -17t17 -41q0 -26 -16 -43t-42 -17q-25 0 -42 17t-17 43zM327 865q0 23 17.5 40.5t41.5 17.5t41 -17t17 -41q0 -26 -16 -43
t-42 -17q-25 0 -42 17t-17 43z" />
    <glyph glyph-name="Zcaron" unicode="&#x17d;" horiz-adv-x="576" 
d="M373 616h-303v99h482l-361 -611h365v-104h-547zM203 918l85 -77l85 77h60l-94 -133h-102l-94 133h60z" />
    <glyph glyph-name="zcaron" unicode="&#x17e;" horiz-adv-x="449" 
d="M-1 0l258 370h-232v93h404l-252 -370h252v-93h-430zM140 666l85 -77l85 77h60l-94 -133h-102l-94 133h60z" />
    <glyph glyph-name="florin" unicode="&#x192;" horiz-adv-x="604" 
d="M307 12q-7 -61 -18 -104.5t-29 -71.5t-46 -41.5t-70 -13.5q-35 0 -77 12l20 99q27 -11 41 -11q21 0 34 9.5t20.5 29t12.5 50t10 72.5l41 340h-102l7 81h103l10 75q13 95 49 140t103 45q41 0 89 -17l-9 -92q-33 13 -56 13q-37 0 -50 -27t-21 -84l-7 -53h113l-8 -81h-113z
" />
    <glyph glyph-name="circumflex" unicode="&#x2c6;" 
d="M199 666h102l94 -133h-60l-85 77l-85 -77h-60z" />
    <glyph glyph-name="caron" unicode="&#x2c7;" 
d="M165 666l85 -77l85 77h60l-94 -133h-102l-94 133h60z" />
    <glyph glyph-name="breve" unicode="&#x2d8;" 
d="M163 664q5 -32 26 -46.5t61 -14.5q41 0 61 14.5t25 46.5h58q-8 -67 -41.5 -98t-102.5 -31q-68 0 -103 31t-43 98h59z" />
    <glyph glyph-name="dotaccent" unicode="&#x2d9;" 
d="M188 613q0 25 18.5 43.5t43.5 18.5q26 0 44 -18t18 -44q0 -27 -17.5 -44.5t-44.5 -17.5q-26 0 -44 18t-18 44z" />
    <glyph glyph-name="ring" unicode="&#x2da;" 
d="M134 627q0 24 9 45.5t25 37t37 24.5t45 9t45 -9t37 -25t25 -37t9 -45t-9 -45t-24.5 -36.5t-37 -24.5t-45.5 -9t-45.5 9t-37 24.5t-24.5 36.5t-9 45zM195 627q0 -23 16 -39t39 -16t39.5 16t16.5 39t-16.5 39.5t-39.5 16.5t-39 -16.5t-16 -39.5z" />
    <glyph glyph-name="ogonek" unicode="&#x2db;" 
d="M305 0q-32 -27 -48 -52t-16 -52q0 -21 10 -30t33 -9h46v-76h-47q-57 0 -85 21t-28 67q0 32 23 64t69 67h43z" />
    <glyph glyph-name="tilde" unicode="&#x2dc;" 
d="M393 655q-9 -50 -34.5 -76t-60.5 -26q-12 0 -26 3l-61 16q-5 1 -9 1.5t-9 0.5q-17 0 -27 -7.5t-15 -25.5h-44q22 102 92 102q15 0 30 -4l57 -15q6 -2 12 -2h11q31 0 40 33h44z" />
    <glyph glyph-name="hungarumlaut" unicode="&#x2dd;" 
d="M212 666h92l-112 -133h-43zM353 666h97l-126 -133h-47z" />
    <glyph glyph-name="endash" unicode="&#x2013;" 
d="M500 266v-71h-500v71h500z" />
    <glyph glyph-name="emdash" unicode="&#x2014;" horiz-adv-x="1000" 
d="M0 266h1000v-71h-1000v71z" />
    <glyph glyph-name="quoteleft" unicode="&#x2018;" horiz-adv-x="302" 
d="M149 443l-89 30l120 258l62 -22z" />
    <glyph glyph-name="quoteright" unicode="&#x2019;" horiz-adv-x="302" 
d="M153 731l89 -29l-120 -259l-62 23z" />
    <glyph glyph-name="quotesinglbase" unicode="&#x201a;" horiz-adv-x="302" 
d="M153 120l89 -29l-120 -259l-62 22z" />
    <glyph glyph-name="quotedblleft" unicode="&#x201c;" horiz-adv-x="442" 
d="M308 443l-89 30l120 258l62 -22zM131 443l-90 30l120 258l62 -22z" />
    <glyph glyph-name="quotedblright" unicode="&#x201d;" horiz-adv-x="442" 
d="M312 731l89 -29l-120 -259l-62 23zM134 731l89 -29l-120 -259l-62 23z" />
    <glyph glyph-name="quotedblbase" unicode="&#x201e;" horiz-adv-x="442" 
d="M312 120l89 -29l-120 -259l-62 22zM134 120l89 -29l-120 -259l-62 22z" />
    <glyph glyph-name="dagger" unicode="&#x2020;" horiz-adv-x="532" 
d="M216 362h-175v89h175v264h100v-264h176v-89h-176v-580h-100v580z" />
    <glyph glyph-name="daggerdbl" unicode="&#x2021;" horiz-adv-x="532" 
d="M216 22h-176v88h176v318h-176v88h176v199h100v-199h176v-88h-176v-318h176v-88h-176v-240h-100v240z" />
    <glyph glyph-name="bullet" unicode="&#x2022;" horiz-adv-x="590" 
d="M150 372q0 30 11.5 56.5t31 46t46 30.5t56.5 11t56 -11t45.5 -30.5t31 -46t11.5 -56.5t-11.5 -56t-31 -46t-46 -31.5t-56.5 -11.5t-56 11.5t-45.5 31t-31 46t-11.5 56.5z" />
    <glyph glyph-name="ellipsis" unicode="&#x2026;" horiz-adv-x="1000" 
d="M103 54q0 27 18.5 46t45.5 19t45.5 -19t18.5 -46q0 -26 -18.5 -44.5t-45.5 -18.5t-45.5 18.5t-18.5 44.5zM436 54q0 27 18.5 46t45.5 19t45.5 -19t18.5 -46q0 -26 -18.5 -44.5t-45.5 -18.5t-45.5 18.5t-18.5 44.5zM770 54q0 27 18.5 46t45.5 19t45.5 -19t18.5 -46
q0 -26 -18.5 -44.5t-45.5 -18.5t-45.5 18.5t-18.5 44.5z" />
    <glyph glyph-name="perthousand" unicode="&#x2030;" horiz-adv-x="1169" 
d="M155 -19l417 741h67l-417 -741h-67zM28 534q0 90 42.5 139t117.5 49t117 -48.5t42 -139.5q0 -90 -42 -139t-117 -49t-117.5 48.5t-42.5 139.5zM187 403q72 0 72 131q0 64 -18 97.5t-52 33.5q-73 0 -73 -132q0 -64 18.5 -97t52.5 -33zM604 39q73 0 73 131q0 64 -18.5 97
t-52.5 33q-73 0 -73 -131q0 -64 18.5 -97t52.5 -33zM446 170q0 90 42.5 139t117.5 49t117 -48.5t42 -139.5q0 -90 -42.5 -139.5t-117.5 -49.5t-117 49.5t-42 139.5zM822 170q0 90 42.5 139t117.5 49t117 -48.5t42 -139.5q0 -90 -42.5 -139.5t-117.5 -49.5t-117 49.5
t-42 139.5zM980 39q73 0 73 131q0 64 -18.5 97t-52.5 33q-73 0 -73 -131q0 -64 18.5 -97t52.5 -33z" />
    <glyph glyph-name="guilsinglleft" unicode="&#x2039;" horiz-adv-x="306" 
d="M231 387l-101 -158l101 -158l-68 -41l-124 199l124 199z" />
    <glyph glyph-name="guilsinglright" unicode="&#x203a;" horiz-adv-x="266" 
d="M39 71l101 158l-101 158l68 41l124 -199l-124 -199z" />
    <glyph glyph-name="fraction" unicode="&#x2044;" horiz-adv-x="167" 
d="M266 722h67l-433 -741h-67z" />
    <glyph glyph-name="trademark" unicode="&#x2122;" horiz-adv-x="833" 
d="M338 713v-46h-82v-219h-63v219h-83v46h228zM478 713l69 -176l65 176h83v-265h-56v209l-78 -209h-29l-81 209v-209h-56v265h83z" />
    <glyph glyph-name="minus" unicode="&#x2212;" horiz-adv-x="833" 
d="M709 340v-83h-585v83h585z" />
    <glyph glyph-name="fi" unicode="&#xfb01;" horiz-adv-x="562" 
d="M88 370h-81v93h81v124q0 92 38 136t119 44q35 0 72 -10v-96q-25 15 -52 15q-40 0 -55.5 -24.5t-15.5 -78.5v-110h111v-93h-111v-370h-106v370zM378 463h107v-463h-107v463zM365 663q0 27 19.5 46.5t47.5 19.5t47 -18.5t19 -47.5t-19 -48t-47 -19t-47.5 20t-19.5 47z" />
    <glyph glyph-name="fl" unicode="&#xfb02;" horiz-adv-x="562" 
d="M88 370h-81v93h81v124q0 92 38 136t119 44q35 0 72 -10v-96q-25 15 -52 15q-40 0 -55.5 -24.5t-15.5 -78.5v-110h111v-93h-111v-370h-106v370zM378 757h107v-757h-107v757z" />
    </font>
</defs>
</svg>
